<svg width="80" height="80" viewBox="0 0 80 80" fill="none" xmlns="http://www.w3.org/2000/svg">
<rect width="80" height="80" rx="8" fill="#2B2B2B"/>
<path d="M32.7539 63.8008H31.043C31.0117 63.5794 30.9479 63.3828 30.8516 63.2109C30.7552 63.0365 30.6315 62.888 30.4805 62.7656C30.3294 62.6432 30.1549 62.5495 29.957 62.4844C29.7617 62.4193 29.5495 62.3867 29.3203 62.3867C28.9063 62.3867 28.5456 62.4896 28.2383 62.6953C27.931 62.8984 27.6927 63.1953 27.5234 63.5859C27.3542 63.974 27.2695 64.4453 27.2695 65C27.2695 65.5703 27.3542 66.0495 27.5234 66.4375C27.6953 66.8255 27.9349 67.1185 28.2422 67.3164C28.5495 67.5143 28.9049 67.6133 29.3086 67.6133C29.5352 67.6133 29.7448 67.5833 29.9375 67.5234C30.1328 67.4635 30.306 67.3763 30.457 67.2617C30.6081 67.1445 30.7331 67.0026 30.832 66.8359C30.9336 66.6693 31.0039 66.4792 31.043 66.2656L32.7539 66.2734C32.7096 66.6406 32.599 66.9948 32.4219 67.3359C32.2474 67.6745 32.0117 67.9779 31.7148 68.2461C31.4206 68.5117 31.069 68.7227 30.6602 68.8789C30.2539 69.0326 29.7943 69.1094 29.2813 69.1094C28.5677 69.1094 27.9297 68.9479 27.3672 68.625C26.8073 68.3021 26.3646 67.8346 26.0391 67.2227C25.7161 66.6107 25.5547 65.8698 25.5547 65C25.5547 64.1276 25.7188 63.3854 26.0469 62.7734C26.375 62.1615 26.8203 61.6953 27.3828 61.375C27.9453 61.0521 28.5781 60.8906 29.2813 60.8906C29.7448 60.8906 30.1745 60.9557 30.5703 61.0859C30.9688 61.2161 31.3216 61.4062 31.6289 61.6562C31.9362 61.9036 32.1862 62.207 32.3789 62.5664C32.5742 62.9258 32.6992 63.3372 32.7539 63.8008ZM38.3066 63.3008C38.2754 62.9857 38.1413 62.7409 37.9043 62.5664C37.6673 62.3919 37.3457 62.3047 36.9395 62.3047C36.6634 62.3047 36.4303 62.3437 36.2402 62.4219C36.0501 62.4974 35.9043 62.6029 35.8027 62.7383C35.7038 62.8737 35.6543 63.0273 35.6543 63.1992C35.6491 63.3424 35.679 63.4674 35.7441 63.5742C35.8118 63.681 35.9043 63.7734 36.0215 63.8516C36.1387 63.9271 36.2741 63.9935 36.4277 64.0508C36.5814 64.1055 36.7454 64.1523 36.9199 64.1914L37.6387 64.3633C37.9876 64.4414 38.3079 64.5456 38.5996 64.6758C38.8913 64.806 39.1439 64.9661 39.3574 65.1562C39.571 65.3464 39.7363 65.5703 39.8535 65.8281C39.9733 66.0859 40.0345 66.3815 40.0371 66.7148C40.0345 67.2044 39.9095 67.6289 39.6621 67.9883C39.4173 68.3451 39.0632 68.6224 38.5996 68.8203C38.1387 69.0156 37.5827 69.1133 36.9316 69.1133C36.2858 69.1133 35.7233 69.0143 35.2441 68.8164C34.7676 68.6185 34.3952 68.3255 34.127 67.9375C33.8613 67.5469 33.722 67.0638 33.709 66.4883H35.3457C35.3639 66.7565 35.4408 66.9805 35.5762 67.1602C35.7142 67.3372 35.8978 67.4714 36.127 67.5625C36.3587 67.651 36.6204 67.6953 36.9121 67.6953C37.1986 67.6953 37.4473 67.6536 37.6582 67.5703C37.8717 67.487 38.0371 67.3711 38.1543 67.2227C38.2715 67.0742 38.3301 66.9036 38.3301 66.7109C38.3301 66.5312 38.2767 66.3802 38.1699 66.2578C38.0658 66.1354 37.9121 66.0312 37.709 65.9453C37.5085 65.8594 37.2624 65.7812 36.9707 65.7109L36.0996 65.4922C35.4251 65.3281 34.8926 65.0716 34.502 64.7227C34.1113 64.3737 33.9173 63.9036 33.9199 63.3125C33.9173 62.8281 34.0462 62.4049 34.3066 62.043C34.5697 61.681 34.9303 61.3984 35.3887 61.1953C35.847 60.9922 36.3678 60.8906 36.9512 60.8906C37.5449 60.8906 38.0632 60.9922 38.5059 61.1953C38.9512 61.3984 39.2975 61.681 39.5449 62.043C39.7923 62.4049 39.9199 62.8242 39.9277 63.3008H38.3066ZM45.5146 63.3008C45.4834 62.9857 45.3493 62.7409 45.1123 62.5664C44.8753 62.3919 44.5537 62.3047 44.1475 62.3047C43.8714 62.3047 43.6383 62.3437 43.4482 62.4219C43.2581 62.4974 43.1123 62.6029 43.0107 62.7383C42.9118 62.8737 42.8623 63.0273 42.8623 63.1992C42.8571 63.3424 42.887 63.4674 42.9521 63.5742C43.0199 63.681 43.1123 63.7734 43.2295 63.8516C43.3467 63.9271 43.4821 63.9935 43.6357 64.0508C43.7894 64.1055 43.9535 64.1523 44.1279 64.1914L44.8467 64.3633C45.1956 64.4414 45.516 64.5456 45.8076 64.6758C46.0993 64.806 46.3519 64.9661 46.5654 65.1562C46.779 65.3464 46.9443 65.5703 47.0615 65.8281C47.1813 66.0859 47.2425 66.3815 47.2451 66.7148C47.2425 67.2044 47.1175 67.6289 46.8701 67.9883C46.6253 68.3451 46.2712 68.6224 45.8076 68.8203C45.3467 69.0156 44.7907 69.1133 44.1396 69.1133C43.4938 69.1133 42.9313 69.0143 42.4521 68.8164C41.9756 68.6185 41.6032 68.3255 41.335 67.9375C41.0693 67.5469 40.93 67.0638 40.917 66.4883H42.5537C42.5719 66.7565 42.6488 66.9805 42.7842 67.1602C42.9222 67.3372 43.1058 67.4714 43.335 67.5625C43.5667 67.651 43.8285 67.6953 44.1201 67.6953C44.4066 67.6953 44.6553 67.6536 44.8662 67.5703C45.0798 67.487 45.2451 67.3711 45.3623 67.2227C45.4795 67.0742 45.5381 66.9036 45.5381 66.7109C45.5381 66.5312 45.4847 66.3802 45.3779 66.2578C45.2738 66.1354 45.1201 66.0312 44.917 65.9453C44.7165 65.8594 44.4704 65.7812 44.1787 65.7109L43.3076 65.4922C42.6331 65.3281 42.1006 65.0716 41.71 64.7227C41.3193 64.3737 41.1253 63.9036 41.1279 63.3125C41.1253 62.8281 41.2542 62.4049 41.5146 62.043C41.7777 61.681 42.1383 61.3984 42.5967 61.1953C43.055 60.9922 43.5758 60.8906 44.1592 60.8906C44.7529 60.8906 45.2712 60.9922 45.7139 61.1953C46.1592 61.3984 46.5055 61.681 46.7529 62.043C47.0003 62.4049 47.1279 62.8242 47.1357 63.3008H45.5146ZM51.293 69.1094C50.7096 69.1094 50.1901 69.0091 49.7344 68.8086C49.2813 68.6055 48.9232 68.3268 48.6602 67.9727C48.3997 67.6159 48.2656 67.2044 48.2578 66.7383H49.9609C49.9714 66.9336 50.0352 67.1055 50.1523 67.2539C50.2721 67.3997 50.431 67.513 50.6289 67.5938C50.8268 67.6745 51.0495 67.7148 51.2969 67.7148C51.5547 67.7148 51.7826 67.6693 51.9805 67.5781C52.1784 67.487 52.3333 67.3607 52.4453 67.1992C52.5573 67.0378 52.6133 66.8516 52.6133 66.6406C52.6133 66.4271 52.5534 66.2383 52.4336 66.0742C52.3164 65.9076 52.1471 65.7773 51.9258 65.6836C51.707 65.5898 51.4466 65.543 51.1445 65.543H50.3984V64.3008H51.1445C51.3997 64.3008 51.625 64.2565 51.8203 64.168C52.0182 64.0794 52.1719 63.957 52.2813 63.8008C52.3906 63.6419 52.4453 63.457 52.4453 63.2461C52.4453 63.0456 52.3971 62.8698 52.3008 62.7187C52.207 62.5651 52.0742 62.4453 51.9023 62.3594C51.7331 62.2734 51.5352 62.2305 51.3086 62.2305C51.0794 62.2305 50.8698 62.2721 50.6797 62.3555C50.4896 62.4362 50.3372 62.5521 50.2227 62.7031C50.1081 62.8542 50.0469 63.0312 50.0391 63.2344H48.418C48.4258 62.7734 48.5573 62.3672 48.8125 62.0156C49.0677 61.6641 49.4115 61.3893 49.8438 61.1914C50.2786 60.9909 50.7695 60.8906 51.3164 60.8906C51.8685 60.8906 52.3516 60.9909 52.7656 61.1914C53.1797 61.3919 53.5013 61.6628 53.7305 62.0039C53.9622 62.3424 54.0768 62.7227 54.0742 63.1445C54.0768 63.5924 53.9375 63.9661 53.6562 64.2656C53.3776 64.5651 53.0143 64.7552 52.5664 64.8359V64.8984C53.1549 64.974 53.6029 65.1784 53.9102 65.5117C54.2201 65.8424 54.3737 66.2565 54.3711 66.7539C54.3737 67.2096 54.2422 67.6146 53.9766 67.9688C53.7135 68.3229 53.3503 68.6016 52.8867 68.8047C52.4232 69.0078 51.8919 69.1094 51.293 69.1094Z" fill="#FFA800"/>
<path d="M21.8744 10.3281L25.1737 47.3679L39.978 51.4957L54.8237 47.3528L58.1256 10.3281H21.8744ZM51.2714 18.8141L50.1732 31.1532L50.1765 31.2198L50.1719 31.3731V31.3718L49.3916 39.9995L49.3056 40.766L40 43.3398L39.9928 43.3464L30.7032 40.7581L30.0742 33.625H34.6296L34.9528 37.2521L40.0013 38.6204L40 38.623V38.6223L45.0672 37.2347L45.6027 31.3281H35.0099L34.919 30.3296L34.712 27.9904L34.6033 26.7344H46.0054L46.4201 22.1406H29.0538L28.9629 21.1428L28.7562 18.8029L28.6472 17.5469H51.38L51.2714 18.8141Z" fill="#FFA800"/>
</svg>
