<svg width="80" height="80" viewBox="0 0 80 80" fill="none" xmlns="http://www.w3.org/2000/svg">
<rect width="80" height="80" rx="8" fill="#2B2B2B"/>
<path d="M21.6953 69V61H23.3867V64.3008H26.8203V61H28.5078V69H26.8203V65.6953H23.3867V69H21.6953ZM29.5977 62.3945V61H36.168V62.3945H33.7188V69H32.0469V62.3945H29.5977ZM37.25 61H39.3359L41.5391 66.375H41.6328L43.8359 61H45.9219V69H44.2813V63.793H44.2148L42.1445 68.9609H41.0273L38.957 63.7734H38.8906V69H37.25V61ZM47.3154 69V61H49.0068V67.6055H52.4365V69H47.3154ZM56.4316 69.1094C55.8796 69.1094 55.3874 69.0078 54.9551 68.8047C54.5254 68.6016 54.1842 68.3216 53.9316 67.9648C53.679 67.6081 53.5475 67.1992 53.5371 66.7383H55.1777C55.196 67.0482 55.3262 67.2995 55.5684 67.4922C55.8105 67.6849 56.0983 67.7812 56.4316 67.7812C56.6973 67.7812 56.9316 67.7227 57.1348 67.6055C57.3405 67.4857 57.5007 67.3203 57.6152 67.1094C57.7324 66.8958 57.791 66.651 57.791 66.375C57.791 66.0937 57.7311 65.8464 57.6113 65.6328C57.4941 65.4193 57.3314 65.2526 57.123 65.1328C56.9147 65.013 56.6764 64.9518 56.4082 64.9492C56.1738 64.9492 55.946 64.9974 55.7246 65.0937C55.5059 65.1901 55.3353 65.3216 55.2129 65.4883L53.709 65.2188L54.0879 61H58.9785V62.3828H55.4824L55.2754 64.3867H55.3223C55.4629 64.1888 55.6751 64.0247 55.959 63.8945C56.2428 63.7643 56.5605 63.6992 56.9121 63.6992C57.3939 63.6992 57.8236 63.8125 58.2012 64.0391C58.5788 64.2656 58.877 64.5768 59.0957 64.9727C59.3145 65.3659 59.4225 65.819 59.4199 66.332C59.4225 66.8711 59.2975 67.3503 59.0449 67.7695C58.7949 68.1862 58.4447 68.5143 57.9941 68.7539C57.5462 68.9909 57.0254 69.1094 56.4316 69.1094Z" fill="#FFA800"/>
<path d="M21.9636 10.6562L25.2465 47.4368L39.978 51.5058L54.7502 47.4414L58.0364 10.6562H21.9636ZM51.2081 19.3644L51.0024 21.7177L50.9118 22.7969H33.6311L34.0435 27.3906H50.501L50.3907 28.5295L49.3299 40.3811L49.2518 41.1259L40 43.6686V43.6692L39.9888 43.6751L30.7433 41.2395L30.1156 34.2812H34.6486L34.9698 37.864L39.9859 39.2031H40V39.024L45.0384 37.7525L45.5647 31.9844H29.9138L28.8037 19.4772L28.6958 18.2031H51.3164L51.2081 19.3644Z" fill="#FFA800"/>
</svg>
