<svg width="80" height="80" viewBox="0 0 80 80" fill="none" xmlns="http://www.w3.org/2000/svg">
<rect width="80" height="80" rx="8" fill="#2B2B2B"/>
<path d="M27.7886 56.3008C27.7573 55.9857 27.6232 55.7409 27.3862 55.5664C27.1493 55.3919 26.8276 55.3047 26.4214 55.3047C26.1453 55.3047 25.9123 55.3437 25.7222 55.4219C25.5321 55.4974 25.3862 55.6029 25.2847 55.7383C25.1857 55.8737 25.1362 56.0273 25.1362 56.1992C25.131 56.3424 25.161 56.4674 25.2261 56.5742C25.2938 56.681 25.3862 56.7734 25.5034 56.8516C25.6206 56.9271 25.756 56.9935 25.9097 57.0508C26.0633 57.1055 26.2274 57.1523 26.4019 57.1914L27.1206 57.3633C27.4696 57.4414 27.7899 57.5456 28.0815 57.6758C28.3732 57.806 28.6258 57.9661 28.8394 58.1562C29.0529 58.3464 29.2183 58.5703 29.3354 58.8281C29.4552 59.0859 29.5164 59.3815 29.519 59.7148C29.5164 60.2044 29.3914 60.6289 29.144 60.9883C28.8993 61.3451 28.5451 61.6224 28.0815 61.8203C27.6206 62.0156 27.0646 62.1133 26.4136 62.1133C25.7677 62.1133 25.2052 62.0143 24.7261 61.8164C24.2495 61.6185 23.8771 61.3255 23.6089 60.9375C23.3433 60.5469 23.2039 60.0638 23.1909 59.4883H24.8276C24.8459 59.7565 24.9227 59.9805 25.0581 60.1602C25.1961 60.3372 25.3797 60.4714 25.6089 60.5625C25.8407 60.651 26.1024 60.6953 26.394 60.6953C26.6805 60.6953 26.9292 60.6536 27.1401 60.5703C27.3537 60.487 27.519 60.3711 27.6362 60.2227C27.7534 60.0742 27.812 59.9036 27.812 59.7109C27.812 59.5312 27.7586 59.3802 27.6519 59.2578C27.5477 59.1354 27.394 59.0312 27.1909 58.9453C26.9904 58.8594 26.7443 58.7812 26.4526 58.7109L25.5815 58.4922C24.9071 58.3281 24.3745 58.0716 23.9839 57.7227C23.5933 57.3737 23.3993 56.9036 23.4019 56.3125C23.3993 55.8281 23.5282 55.4049 23.7886 55.043C24.0516 54.681 24.4123 54.3984 24.8706 54.1953C25.3289 53.9922 25.8498 53.8906 26.4331 53.8906C27.0269 53.8906 27.5451 53.9922 27.9878 54.1953C28.4331 54.3984 28.7795 54.681 29.0269 55.043C29.2743 55.4049 29.4019 55.8242 29.4097 56.3008H27.7886ZM33.8169 56V57.25H30.2036V56H33.8169ZM31.0239 54.5625H32.688V60.1562C32.688 60.3099 32.7114 60.4297 32.7583 60.5156C32.8052 60.599 32.8703 60.6576 32.9536 60.6914C33.0396 60.7253 33.1385 60.7422 33.2505 60.7422C33.3286 60.7422 33.4067 60.7357 33.4849 60.7227C33.563 60.707 33.6229 60.6953 33.6646 60.6875L33.9263 61.9258C33.8429 61.9518 33.7257 61.9818 33.5747 62.0156C33.4237 62.0521 33.2401 62.0742 33.0239 62.082C32.6229 62.0977 32.2713 62.0443 31.9692 61.9219C31.6698 61.7995 31.4367 61.6094 31.27 61.3516C31.1034 61.0937 31.0213 60.7682 31.0239 60.375V54.5625ZM35.9282 64.25C35.7173 64.25 35.5194 64.2331 35.3345 64.1992C35.1522 64.168 35.0011 64.1276 34.8813 64.0781L35.2563 62.8359C35.4517 62.8958 35.6274 62.9284 35.7837 62.9336C35.9425 62.9388 36.0793 62.9023 36.1938 62.8242C36.311 62.7461 36.4061 62.6133 36.479 62.4258L36.5767 62.1719L34.4243 56H36.1743L37.4165 60.4062H37.479L38.7329 56H40.4946L38.1626 62.6484C38.0506 62.9714 37.8983 63.2526 37.7056 63.4922C37.5155 63.7344 37.2746 63.9206 36.9829 64.0508C36.6912 64.1836 36.3397 64.25 35.9282 64.25ZM43.0103 54V62H41.3462V54H43.0103ZM47.0776 62.1172C46.4604 62.1172 45.9292 61.9922 45.4839 61.7422C45.0412 61.4896 44.7 61.1328 44.4604 60.6719C44.2209 60.2083 44.1011 59.6602 44.1011 59.0273C44.1011 58.4102 44.2209 57.8685 44.4604 57.4023C44.7 56.9362 45.0373 56.5729 45.4722 56.3125C45.9097 56.0521 46.4227 55.9219 47.0112 55.9219C47.4071 55.9219 47.7756 55.9857 48.1167 56.1133C48.4604 56.2383 48.7599 56.4271 49.0151 56.6797C49.2729 56.9323 49.4735 57.25 49.6167 57.6328C49.7599 58.013 49.8315 58.4583 49.8315 58.9687V59.4258H44.7651V58.3945H48.2651C48.2651 58.1549 48.2131 57.9427 48.1089 57.7578C48.0047 57.5729 47.8602 57.4284 47.6753 57.3242C47.493 57.2174 47.2808 57.1641 47.0386 57.1641C46.786 57.1641 46.562 57.2227 46.3667 57.3398C46.174 57.4544 46.0229 57.6094 45.9136 57.8047C45.8042 57.9974 45.7482 58.2122 45.7456 58.4492V59.4297C45.7456 59.7266 45.8003 59.9831 45.9097 60.1992C46.0216 60.4154 46.1792 60.582 46.3823 60.6992C46.5854 60.8164 46.8263 60.875 47.105 60.875C47.2899 60.875 47.4591 60.849 47.6128 60.7969C47.7664 60.7448 47.8979 60.6667 48.0073 60.5625C48.1167 60.4583 48.2 60.3307 48.2573 60.1797L49.7964 60.2812C49.7183 60.651 49.5581 60.974 49.3159 61.25C49.0763 61.5234 48.7664 61.737 48.3862 61.8906C48.0086 62.0417 47.5724 62.1172 47.0776 62.1172ZM53.1284 62.0977C52.6727 62.0977 52.2599 61.9805 51.8901 61.7461C51.5229 61.5091 51.2313 61.1615 51.0151 60.7031C50.8016 60.2422 50.6948 59.6771 50.6948 59.0078C50.6948 58.3203 50.8055 57.7487 51.0269 57.293C51.2482 56.8346 51.5425 56.4922 51.9097 56.2656C52.2795 56.0365 52.6844 55.9219 53.1245 55.9219C53.4604 55.9219 53.7404 55.9792 53.9644 56.0938C54.1909 56.2057 54.3732 56.3464 54.5112 56.5156C54.6519 56.6823 54.7586 56.8464 54.8315 57.0078H54.8823V54H56.5425V62H54.9019V61.0391H54.8315C54.7534 61.2057 54.6427 61.3711 54.4995 61.5352C54.3589 61.6966 54.1753 61.8307 53.9487 61.9375C53.7248 62.0443 53.4513 62.0977 53.1284 62.0977ZM53.6558 60.7734C53.924 60.7734 54.1506 60.7005 54.3354 60.5547C54.5229 60.4062 54.6662 60.1992 54.7651 59.9336C54.8667 59.668 54.9175 59.3568 54.9175 59C54.9175 58.6432 54.868 58.3333 54.769 58.0703C54.6701 57.8073 54.5269 57.6042 54.3394 57.4609C54.1519 57.3177 53.924 57.2461 53.6558 57.2461C53.3823 57.2461 53.1519 57.3203 52.9644 57.4687C52.7769 57.6172 52.6349 57.8229 52.5386 58.0859C52.4422 58.349 52.394 58.6536 52.394 59C52.394 59.349 52.4422 59.6576 52.5386 59.9258C52.6375 60.1914 52.7795 60.3997 52.9644 60.5508C53.1519 60.6992 53.3823 60.7734 53.6558 60.7734ZM13.0566 67.8008H11.3457C11.3145 67.5794 11.2507 67.3828 11.1543 67.2109C11.0579 67.0365 10.9342 66.888 10.7832 66.7656C10.6322 66.6432 10.4577 66.5495 10.2598 66.4844C10.0645 66.4193 9.85221 66.3867 9.62305 66.3867C9.20898 66.3867 8.84831 66.4896 8.54102 66.6953C8.23372 66.8984 7.99544 67.1953 7.82617 67.5859C7.6569 67.974 7.57227 68.4453 7.57227 69C7.57227 69.5703 7.6569 70.0495 7.82617 70.4375C7.99805 70.8255 8.23763 71.1185 8.54492 71.3164C8.85221 71.5143 9.20768 71.6133 9.61133 71.6133C9.83789 71.6133 10.0475 71.5833 10.2402 71.5234C10.4355 71.4635 10.6087 71.3763 10.7598 71.2617C10.9108 71.1445 11.0358 71.0026 11.1348 70.8359C11.2363 70.6693 11.3066 70.4792 11.3457 70.2656L13.0566 70.2734C13.0124 70.6406 12.9017 70.9948 12.7246 71.3359C12.5501 71.6745 12.3145 71.9779 12.0176 72.2461C11.7233 72.5117 11.3717 72.7227 10.9629 72.8789C10.5566 73.0326 10.097 73.1094 9.58398 73.1094C8.87044 73.1094 8.23242 72.9479 7.66992 72.625C7.11003 72.3021 6.66732 71.8346 6.3418 71.2227C6.01888 70.6107 5.85742 69.8698 5.85742 69C5.85742 68.1276 6.02148 67.3854 6.34961 66.7734C6.67773 66.1615 7.12305 65.6953 7.68555 65.375C8.24805 65.0521 8.88086 64.8906 9.58398 64.8906C10.0475 64.8906 10.4772 64.9557 10.873 65.0859C11.2715 65.2161 11.6243 65.4062 11.9316 65.6562C12.2389 65.9036 12.4889 66.207 12.6816 66.5664C12.877 66.9258 13.002 67.3372 13.0566 67.8008ZM16.9492 73.1172C16.3424 73.1172 15.8177 72.9883 15.375 72.7305C14.9349 72.4701 14.5951 72.1081 14.3555 71.6445C14.1159 71.1784 13.9961 70.638 13.9961 70.0234C13.9961 69.4036 14.1159 68.862 14.3555 68.3984C14.5951 67.9323 14.9349 67.5703 15.375 67.3125C15.8177 67.0521 16.3424 66.9219 16.9492 66.9219C17.556 66.9219 18.0794 67.0521 18.5195 67.3125C18.9622 67.5703 19.3034 67.9323 19.543 68.3984C19.7826 68.862 19.9023 69.4036 19.9023 70.0234C19.9023 70.638 19.7826 71.1784 19.543 71.6445C19.3034 72.1081 18.9622 72.4701 18.5195 72.7305C18.0794 72.9883 17.556 73.1172 16.9492 73.1172ZM16.957 71.8281C17.2331 71.8281 17.4635 71.75 17.6484 71.5938C17.8333 71.4349 17.9727 71.2187 18.0664 70.9453C18.1628 70.6719 18.2109 70.3607 18.2109 70.0117C18.2109 69.6628 18.1628 69.3516 18.0664 69.0781C17.9727 68.8047 17.8333 68.5885 17.6484 68.4297C17.4635 68.2708 17.2331 68.1914 16.957 68.1914C16.6784 68.1914 16.444 68.2708 16.2539 68.4297C16.0664 68.5885 15.9245 68.8047 15.8281 69.0781C15.7344 69.3516 15.6875 69.6628 15.6875 70.0117C15.6875 70.3607 15.7344 70.6719 15.8281 70.9453C15.9245 71.2187 16.0664 71.4349 16.2539 71.5938C16.444 71.75 16.6784 71.8281 16.957 71.8281ZM20.9844 73V67H22.5703V68.0586H22.6406C22.7656 67.707 22.974 67.4297 23.2656 67.2266C23.5573 67.0234 23.9063 66.9219 24.3125 66.9219C24.724 66.9219 25.0742 67.0247 25.3633 67.2305C25.6523 67.4336 25.8451 67.7096 25.9414 68.0586H26.0039C26.1263 67.7148 26.3477 67.4401 26.668 67.2344C26.9909 67.026 27.3724 66.9219 27.8125 66.9219C28.3724 66.9219 28.8268 67.1003 29.1758 67.457C29.5273 67.8112 29.7031 68.3138 29.7031 68.9648V73H28.043V69.293C28.043 68.9596 27.9544 68.7096 27.7773 68.543C27.6003 68.3763 27.3789 68.293 27.1133 68.293C26.8112 68.293 26.5755 68.3893 26.4063 68.582C26.237 68.7721 26.1523 69.0234 26.1523 69.3359V73H24.5391V69.2578C24.5391 68.9635 24.4544 68.7292 24.2852 68.5547C24.1185 68.3802 23.8984 68.293 23.625 68.293C23.4401 68.293 23.2734 68.3398 23.125 68.4336C22.9792 68.5247 22.8633 68.6536 22.7773 68.8203C22.6914 68.9844 22.6484 69.1771 22.6484 69.3984V73H20.9844ZM31.0176 75.25V67H32.6582V68.0078H32.7324C32.8053 67.8464 32.9108 67.6823 33.0488 67.5156C33.1895 67.3464 33.3717 67.2057 33.5957 67.0938C33.8223 66.9792 34.1035 66.9219 34.4395 66.9219C34.877 66.9219 35.2806 67.0365 35.6504 67.2656C36.0202 67.4922 36.3158 67.8346 36.5371 68.293C36.7585 68.7487 36.8691 69.3203 36.8691 70.0078C36.8691 70.6771 36.7611 71.2422 36.5449 71.7031C36.3314 72.1615 36.0397 72.5091 35.6699 72.7461C35.3027 72.9805 34.8913 73.0977 34.4355 73.0977C34.1126 73.0977 33.8379 73.0443 33.6113 72.9375C33.3874 72.8307 33.2038 72.6966 33.0605 72.5352C32.9173 72.3711 32.8079 72.2057 32.7324 72.0391H32.6816V75.25H31.0176ZM32.6465 70C32.6465 70.3568 32.696 70.668 32.7949 70.9336C32.8939 71.1992 33.0371 71.4062 33.2246 71.5547C33.4121 71.7005 33.64 71.7734 33.9082 71.7734C34.179 71.7734 34.4082 71.6992 34.5957 71.5508C34.7832 71.3997 34.9251 71.1914 35.0215 70.9258C35.1204 70.6576 35.1699 70.349 35.1699 70C35.1699 69.6536 35.1217 69.349 35.0254 69.0859C34.929 68.8229 34.7871 68.6172 34.5996 68.4687C34.4121 68.3203 34.1816 68.2461 33.9082 68.2461C33.6374 68.2461 33.4082 68.3177 33.2207 68.4609C33.0358 68.6042 32.8939 68.8073 32.7949 69.0703C32.696 69.3333 32.6465 69.6432 32.6465 70ZM40.6895 73.1172C40.0827 73.1172 39.5579 72.9883 39.1152 72.7305C38.6751 72.4701 38.3353 72.1081 38.0957 71.6445C37.8561 71.1784 37.7363 70.638 37.7363 70.0234C37.7363 69.4036 37.8561 68.862 38.0957 68.3984C38.3353 67.9323 38.6751 67.5703 39.1152 67.3125C39.5579 67.0521 40.0827 66.9219 40.6895 66.9219C41.2962 66.9219 41.8197 67.0521 42.2598 67.3125C42.7025 67.5703 43.0436 67.9323 43.2832 68.3984C43.5228 68.862 43.6426 69.4036 43.6426 70.0234C43.6426 70.638 43.5228 71.1784 43.2832 71.6445C43.0436 72.1081 42.7025 72.4701 42.2598 72.7305C41.8197 72.9883 41.2962 73.1172 40.6895 73.1172ZM40.6973 71.8281C40.9733 71.8281 41.2038 71.75 41.3887 71.5938C41.5736 71.4349 41.7129 71.2187 41.8066 70.9453C41.903 70.6719 41.9512 70.3607 41.9512 70.0117C41.9512 69.6628 41.903 69.3516 41.8066 69.0781C41.7129 68.8047 41.5736 68.5885 41.3887 68.4297C41.2038 68.2708 40.9733 68.1914 40.6973 68.1914C40.4186 68.1914 40.1842 68.2708 39.9941 68.4297C39.8066 68.5885 39.6647 68.8047 39.5684 69.0781C39.4746 69.3516 39.4277 69.6628 39.4277 70.0117C39.4277 70.3607 39.4746 70.6719 39.5684 70.9453C39.6647 71.2187 39.8066 71.4349 39.9941 71.5938C40.1842 71.75 40.4186 71.8281 40.6973 71.8281ZM46.3887 69.5313V73H44.7246V67H46.3105V68.0586H46.3809C46.5137 67.7096 46.7363 67.4336 47.0488 67.2305C47.3613 67.0247 47.7402 66.9219 48.1855 66.9219C48.6022 66.9219 48.9655 67.013 49.2754 67.1953C49.5853 67.3776 49.8262 67.638 49.998 67.9766C50.1699 68.3125 50.2559 68.7135 50.2559 69.1797V73H48.5918V69.4766C48.5944 69.1094 48.5007 68.8229 48.3105 68.6172C48.1204 68.4089 47.8587 68.3047 47.5254 68.3047C47.3014 68.3047 47.1035 68.3529 46.9316 68.4492C46.7624 68.5456 46.6296 68.6862 46.5332 68.8711C46.4395 69.0534 46.3913 69.2734 46.3887 69.5313ZM54.3018 73.1172C53.6846 73.1172 53.1533 72.9922 52.708 72.7422C52.2653 72.4896 51.9242 72.1328 51.6846 71.6719C51.445 71.2083 51.3252 70.6602 51.3252 70.0273C51.3252 69.4102 51.445 68.8685 51.6846 68.4023C51.9242 67.9362 52.2614 67.5729 52.6963 67.3125C53.1338 67.0521 53.6468 66.9219 54.2354 66.9219C54.6312 66.9219 54.9997 66.9857 55.3408 67.1133C55.6846 67.2383 55.984 67.4271 56.2393 67.6797C56.4971 67.9323 56.6976 68.25 56.8408 68.6328C56.984 69.013 57.0557 69.4583 57.0557 69.9687V70.4258H51.9893V69.3945H55.4893C55.4893 69.1549 55.4372 68.9427 55.333 68.7578C55.2288 68.5729 55.0843 68.4284 54.8994 68.3242C54.7171 68.2174 54.5049 68.1641 54.2627 68.1641C54.0101 68.1641 53.7861 68.2227 53.5908 68.3398C53.3981 68.4544 53.2471 68.6094 53.1377 68.8047C53.0283 68.9974 52.9723 69.2122 52.9697 69.4492V70.4297C52.9697 70.7266 53.0244 70.9831 53.1338 71.1992C53.2458 71.4154 53.4033 71.582 53.6064 71.6992C53.8096 71.8164 54.0505 71.875 54.3291 71.875C54.514 71.875 54.6833 71.849 54.8369 71.7969C54.9906 71.7448 55.1221 71.6667 55.2314 71.5625C55.3408 71.4583 55.4242 71.3307 55.4814 71.1797L57.0205 71.2812C56.9424 71.651 56.7822 71.974 56.54 72.25C56.3005 72.5234 55.9906 72.737 55.6104 72.8906C55.2327 73.0417 54.7965 73.1172 54.3018 73.1172ZM59.8057 69.5313V73H58.1416V67H59.7275V68.0586H59.7979C59.9307 67.7096 60.1533 67.4336 60.4658 67.2305C60.7783 67.0247 61.1572 66.9219 61.6025 66.9219C62.0192 66.9219 62.3825 67.013 62.6924 67.1953C63.0023 67.3776 63.2432 67.638 63.415 67.9766C63.5869 68.3125 63.6729 68.7135 63.6729 69.1797V73H62.0088V69.4766C62.0114 69.1094 61.9176 68.8229 61.7275 68.6172C61.5374 68.4089 61.2757 68.3047 60.9424 68.3047C60.7184 68.3047 60.5205 68.3529 60.3486 68.4492C60.1794 68.5456 60.0465 68.6862 59.9502 68.8711C59.8564 69.0534 59.8083 69.2734 59.8057 69.5313ZM68.1758 67V68.25H64.5625V67H68.1758ZM65.3828 65.5625H67.0469V71.1562C67.0469 71.3099 67.0703 71.4297 67.1172 71.5156C67.1641 71.599 67.2292 71.6576 67.3125 71.6914C67.3984 71.7253 67.4974 71.7422 67.6094 71.7422C67.6875 71.7422 67.7656 71.7357 67.8438 71.7227C67.9219 71.707 67.9818 71.6953 68.0234 71.6875L68.2852 72.9258C68.2018 72.9518 68.0846 72.9818 67.9336 73.0156C67.7826 73.0521 67.599 73.0742 67.3828 73.082C66.9818 73.0977 66.6302 73.0443 66.3281 72.9219C66.0286 72.7995 65.7956 72.6094 65.6289 72.3516C65.4622 72.0937 65.3802 71.7682 65.3828 71.375V65.5625ZM74.1768 68.7109L72.6533 68.8047C72.6273 68.6745 72.5713 68.5573 72.4854 68.4531C72.3994 68.3464 72.2861 68.2617 72.1455 68.1992C72.0075 68.1341 71.8421 68.1016 71.6494 68.1016C71.3916 68.1016 71.1742 68.1562 70.9971 68.2656C70.82 68.3724 70.7314 68.5156 70.7314 68.6953C70.7314 68.8385 70.7887 68.9596 70.9033 69.0586C71.0179 69.1576 71.2145 69.237 71.4932 69.2969L72.5791 69.5156C73.1624 69.6354 73.5973 69.8281 73.8838 70.0937C74.1702 70.3594 74.3135 70.7083 74.3135 71.1406C74.3135 71.5339 74.1976 71.8789 73.9658 72.1758C73.7367 72.4727 73.4215 72.7044 73.0205 72.8711C72.6221 73.0352 72.1624 73.1172 71.6416 73.1172C70.8473 73.1172 70.2145 72.9518 69.7432 72.6211C69.2744 72.2878 68.9997 71.8346 68.9189 71.2617L70.5557 71.1758C70.6051 71.418 70.7249 71.6029 70.915 71.7305C71.1051 71.8555 71.3486 71.918 71.6455 71.918C71.9372 71.918 72.1715 71.862 72.3486 71.75C72.5283 71.6354 72.6195 71.4883 72.6221 71.3086C72.6195 71.1576 72.5557 71.0339 72.4307 70.9375C72.3057 70.8385 72.113 70.763 71.8525 70.7109L70.8135 70.5039C70.2275 70.3867 69.7913 70.1836 69.5049 69.8945C69.221 69.6055 69.0791 69.237 69.0791 68.7891C69.0791 68.4036 69.1833 68.0716 69.3916 67.793C69.6025 67.5143 69.8981 67.2995 70.2783 67.1484C70.6611 66.9974 71.109 66.9219 71.6221 66.9219C72.3799 66.9219 72.9762 67.082 73.4111 67.4023C73.8486 67.7227 74.1038 68.1589 74.1768 68.7109Z" fill="#FFA800"/>
<g clip-path="url(#clip0_31_513)">
<path d="M52.9199 10L52.6242 11.531C52.1669 14.4325 52.3324 15.2626 53.5861 16.3394L54.7964 17.3339L53.5427 22.8863C52.7937 26.1989 51.8751 28.9751 51.2917 29.8874C50.791 30.6745 50.2075 31.8335 50.0814 32.4561C49.8724 33.2 49.1628 33.9479 48.0787 34.6096C47.1207 35.15 45.2402 36.5988 43.9077 37.7617C42.8432 38.7132 42.11 39.2966 41.7118 39.5472L40.4108 40.5692C39.9929 41.2349 39.7564 41.7713 39.6657 42.1785C39.5751 42.5975 39.6263 42.8755 39.7603 43.0791C39.8904 43.2749 40.1151 43.412 40.4226 43.4981C40.7867 43.5828 41.1614 43.6132 41.5344 43.5882C42.3783 43.5309 43.2136 43.3839 44.0259 43.1496C44.3019 43.0752 44.5187 43.0047 44.708 42.9421C44.9997 42.5858 45.6738 41.9123 46.8684 40.7415C50.038 37.6364 51.2483 35.937 49.9986 36.3952C49.5373 36.5596 49.7463 36.1446 50.5387 35.3145C52.2102 33.6973 53.1682 31.254 55.1709 23.5911C56.7557 17.5415 56.7557 17.4553 57.9227 17.4553C58.4707 17.4553 60.02 17.5493 60.02 17.5493V10H56.464H52.9199ZM38.8773 22.9411C37.7261 22.9333 35.2503 24.6757 27.8387 30.6862C27.5194 31.4419 27.4918 31.9627 27.6377 32.2994C27.7323 32.5305 27.9057 32.691 28.1462 32.8085C28.3828 32.9259 28.6903 32.9964 29.0293 33.0238C29.7034 33.0826 30.4998 32.9768 31.1424 32.8515L31.576 32.7536C31.7245 32.5559 31.9194 32.3973 32.1437 32.2916C32.6011 32.041 34.521 30.3025 36.4409 28.4386C39.8195 25.0399 40.6119 23.505 39.236 23.0077C39.1231 22.9631 38.9987 22.9405 38.8773 22.9411ZM47.5346 25.3022C46.5214 25.3296 44.6961 26.4965 41.5699 28.9751C40.0008 30.2398 39.0074 30.9211 38.4751 31.0621L36.4094 32.6832C35.6327 34.0928 35.5184 34.966 35.7234 35.4476C35.7747 35.5664 35.8492 35.6739 35.9426 35.764C36.0359 35.854 36.1464 35.9248 36.2674 35.9723C36.5686 36.0904 36.8898 36.1502 37.2136 36.1485C37.9874 36.1403 38.7565 36.0283 39.5001 35.8157C39.8877 35.7124 40.2705 35.5922 40.6474 35.4554L40.7617 35.4084L40.9706 35.2988C41.3649 34.7937 42.2716 33.8422 43.407 32.7458C46.9945 29.3079 48.8277 26.8646 48.4532 25.9522C48.2837 25.5098 47.9919 25.2866 47.5346 25.3022ZM37.9784 29.5311C37.6867 29.5624 37.0322 30.0636 35.8535 31.0895C34.1504 32.5853 32.2936 33.4467 31.651 33.063C31.5016 33.0965 31.3518 33.1278 31.2015 33.157C30.5471 33.2862 29.731 33.3919 29.0017 33.3332C28.6581 33.3125 28.3212 33.2289 28.0082 33.0865C27.713 32.9524 27.4774 32.7156 27.3459 32.4208C27.2001 32.0684 27.2001 31.6299 27.3656 31.0699L24.8031 33.1609L19.0039 37.9262V45.6517L38.006 30.7841C38.0023 30.6213 38.0236 30.4589 38.0691 30.3025C38.2149 29.7778 38.2071 29.5115 37.9784 29.535V29.5311ZM46.1548 32.0332C45.867 32.0332 45.386 32.4365 44.6173 33.247C43.5726 34.3551 41.9286 35.428 41.0574 35.6473L40.9233 35.7178C40.7803 35.7764 40.6357 35.8313 40.4897 35.8822C40.2531 35.9605 39.9456 36.0545 39.5908 36.1485C38.8812 36.3403 37.9981 36.5166 37.2096 36.497C36.8379 36.4965 36.4698 36.4247 36.1255 36.2855C35.801 36.1527 35.541 35.9 35.4001 35.5807C35.1715 35.0364 35.2621 34.2729 35.7628 33.1883L19 46.3017V51.02H26.3643L41.9838 38.8346C42.3899 38.3882 43.0009 37.7774 43.8249 37.0138C46.0326 34.9816 46.5333 34.2807 46.5333 33.2431C46.5333 32.4365 46.4426 32.0293 46.1548 32.0293V32.0332ZM49.8724 39.6686L48.536 40.9921C47.7869 41.6969 46.4505 42.5662 45.5359 42.9382L45.3545 43.0165L45.3427 43.0361L45.3033 43.0752C45.2678 43.1026 45.252 43.1065 45.2244 43.1183C44.8593 43.2555 44.4884 43.377 44.1127 43.4824C43.2774 43.7239 42.4182 43.8749 41.5502 43.9327C41.1397 43.9589 40.7277 43.9232 40.328 43.827C39.9812 43.7512 39.675 43.5503 39.4686 43.2632C39.2794 42.9734 39.2242 42.5858 39.3306 42.1081C39.4153 41.768 39.541 41.4393 39.7051 41.1291L27.1015 51.02H43.8643L45.867 48.7411C48.6188 45.5538 49.8724 43.2749 49.8724 41.3249V39.6686Z" fill="#FFA800"/>
</g>
<defs>
<clipPath id="clip0_31_513">
<rect width="42" height="42" fill="white" transform="translate(19 10)"/>
</clipPath>
</defs>
</svg>
