<svg width="80" height="80" viewBox="0 0 80 80" fill="none" xmlns="http://www.w3.org/2000/svg">
<rect width="80" height="80" rx="8" fill="#2B2B2B"/>
<path d="M10.3906 62.3945V61H16.9609V62.3945H14.5117V69H12.8398V62.3945H10.3906ZM18.3516 71.25C18.1406 71.25 17.9427 71.2331 17.7578 71.1992C17.5755 71.168 17.4245 71.1276 17.3047 71.0781L17.6797 69.8359C17.875 69.8958 18.0508 69.9284 18.207 69.9336C18.3659 69.9388 18.5026 69.9023 18.6172 69.8242C18.7344 69.7461 18.8294 69.6133 18.9023 69.4258L19 69.1719L16.8477 63H18.5977L19.8398 67.4062H19.9023L21.1563 63H22.918L20.5859 69.6484C20.474 69.9714 20.3216 70.2526 20.1289 70.4922C19.9388 70.7344 19.6979 70.9206 19.4063 71.0508C19.1146 71.1836 18.763 71.25 18.3516 71.25ZM23.7695 71.25V63H25.4102V64.0078H25.4844C25.5573 63.8464 25.6628 63.6823 25.8008 63.5156C25.9414 63.3464 26.1237 63.2057 26.3477 63.0938C26.5742 62.9792 26.8555 62.9219 27.1914 62.9219C27.6289 62.9219 28.0326 63.0365 28.4023 63.2656C28.7721 63.4922 29.0677 63.8346 29.2891 64.293C29.5104 64.7487 29.6211 65.3203 29.6211 66.0078C29.6211 66.6771 29.513 67.2422 29.2969 67.7031C29.0833 68.1615 28.7917 68.5091 28.4219 68.7461C28.0547 68.9805 27.6432 69.0977 27.1875 69.0977C26.8646 69.0977 26.5898 69.0443 26.3633 68.9375C26.1393 68.8307 25.9557 68.6966 25.8125 68.5352C25.6693 68.3711 25.5599 68.2057 25.4844 68.0391H25.4336V71.25H23.7695ZM25.3984 66C25.3984 66.3568 25.4479 66.668 25.5469 66.9336C25.6458 67.1992 25.7891 67.4062 25.9766 67.5547C26.1641 67.7005 26.3919 67.7734 26.6602 67.7734C26.931 67.7734 27.1602 67.6992 27.3477 67.5508C27.5352 67.3997 27.6771 67.1914 27.7734 66.9258C27.8724 66.6576 27.9219 66.349 27.9219 66C27.9219 65.6536 27.8737 65.349 27.7773 65.0859C27.681 64.8229 27.5391 64.6172 27.3516 64.4687C27.1641 64.3203 26.9336 64.2461 26.6602 64.2461C26.3893 64.2461 26.1602 64.3177 25.9727 64.4609C25.7878 64.6042 25.6458 64.8073 25.5469 65.0703C25.4479 65.3333 25.3984 65.6432 25.3984 66ZM33.4648 69.1172C32.8477 69.1172 32.3164 68.9922 31.8711 68.7422C31.4284 68.4896 31.0872 68.1328 30.8477 67.6719C30.6081 67.2083 30.4883 66.6602 30.4883 66.0273C30.4883 65.4102 30.6081 64.8685 30.8477 64.4023C31.0872 63.9362 31.4245 63.5729 31.8594 63.3125C32.2969 63.0521 32.8099 62.9219 33.3984 62.9219C33.7943 62.9219 34.1628 62.9857 34.5039 63.1133C34.8477 63.2383 35.1471 63.4271 35.4023 63.6797C35.6602 63.9323 35.8607 64.25 36.0039 64.6328C36.1471 65.013 36.2188 65.4583 36.2188 65.9687V66.4258H31.1523V65.3945H34.6523C34.6523 65.1549 34.6003 64.9427 34.4961 64.7578C34.3919 64.5729 34.2474 64.4284 34.0625 64.3242C33.8802 64.2174 33.668 64.1641 33.4258 64.1641C33.1732 64.1641 32.9492 64.2227 32.7539 64.3398C32.5612 64.4544 32.4102 64.6094 32.3008 64.8047C32.1914 64.9974 32.1354 65.2122 32.1328 65.4492V66.4297C32.1328 66.7266 32.1875 66.9831 32.2969 67.1992C32.4089 67.4154 32.5664 67.582 32.7695 67.6992C32.9727 67.8164 33.2135 67.875 33.4922 67.875C33.6771 67.875 33.8464 67.849 34 67.7969C34.1536 67.7448 34.2852 67.6667 34.3945 67.5625C34.5039 67.4583 34.5872 67.3307 34.6445 67.1797L36.1836 67.2812C36.1055 67.651 35.9453 67.974 35.7031 68.25C35.4635 68.5234 35.1536 68.737 34.7734 68.8906C34.3958 69.0417 33.9596 69.1172 33.4648 69.1172ZM41.6758 63.3008C41.6445 62.9857 41.5104 62.7409 41.2734 62.5664C41.0365 62.3919 40.7148 62.3047 40.3086 62.3047C40.0326 62.3047 39.7995 62.3437 39.6094 62.4219C39.4193 62.4974 39.2734 62.6029 39.1719 62.7383C39.0729 62.8737 39.0234 63.0273 39.0234 63.1992C39.0182 63.3424 39.0482 63.4674 39.1133 63.5742C39.181 63.681 39.2734 63.7734 39.3906 63.8516C39.5078 63.9271 39.6432 63.9935 39.7969 64.0508C39.9505 64.1055 40.1146 64.1523 40.2891 64.1914L41.0078 64.3633C41.3568 64.4414 41.6771 64.5456 41.9688 64.6758C42.2604 64.806 42.513 64.9661 42.7266 65.1562C42.9401 65.3464 43.1055 65.5703 43.2227 65.8281C43.3424 66.0859 43.4036 66.3815 43.4062 66.7148C43.4036 67.2044 43.2786 67.6289 43.0313 67.9883C42.7865 68.3451 42.4323 68.6224 41.9688 68.8203C41.5078 69.0156 40.9518 69.1133 40.3008 69.1133C39.6549 69.1133 39.0924 69.0143 38.6133 68.8164C38.1367 68.6185 37.7643 68.3255 37.4961 67.9375C37.2305 67.5469 37.0911 67.0638 37.0781 66.4883H38.7148C38.7331 66.7565 38.8099 66.9805 38.9453 67.1602C39.0833 67.3372 39.2669 67.4714 39.4961 67.5625C39.7279 67.651 39.9896 67.6953 40.2812 67.6953C40.5677 67.6953 40.8164 67.6536 41.0273 67.5703C41.2409 67.487 41.4063 67.3711 41.5234 67.2227C41.6406 67.0742 41.6992 66.9036 41.6992 66.7109C41.6992 66.5312 41.6458 66.3802 41.5391 66.2578C41.4349 66.1354 41.2813 66.0312 41.0781 65.9453C40.8776 65.8594 40.6315 65.7812 40.3398 65.7109L39.4688 65.4922C38.7943 65.3281 38.2617 65.0716 37.8711 64.7227C37.4805 64.3737 37.2865 63.9036 37.2891 63.3125C37.2865 62.8281 37.4154 62.4049 37.6758 62.043C37.9388 61.681 38.2995 61.3984 38.7578 61.1953C39.2161 60.9922 39.737 60.8906 40.3203 60.8906C40.9141 60.8906 41.4323 60.9922 41.875 61.1953C42.3203 61.3984 42.6667 61.681 42.9141 62.043C43.1615 62.4049 43.2891 62.8242 43.2969 63.3008H41.6758ZM47.2236 69.1172C46.609 69.1172 46.0804 68.987 45.6377 68.7266C45.1976 68.4635 44.859 68.099 44.6221 67.6328C44.3877 67.1667 44.2705 66.6302 44.2705 66.0234C44.2705 65.4089 44.389 64.8698 44.626 64.4062C44.8656 63.9401 45.2054 63.5768 45.6455 63.3164C46.0856 63.0534 46.609 62.9219 47.2158 62.9219C47.7393 62.9219 48.1976 63.0169 48.5908 63.207C48.984 63.3971 49.2952 63.6641 49.5244 64.0078C49.7536 64.3516 49.8799 64.7552 49.9033 65.2188H48.333C48.2887 64.9193 48.1715 64.6784 47.9814 64.4961C47.7939 64.3112 47.5479 64.2187 47.2432 64.2187C46.9854 64.2187 46.7601 64.2891 46.5674 64.4297C46.3773 64.5677 46.2288 64.7695 46.1221 65.0352C46.0153 65.3008 45.9619 65.6224 45.9619 66C45.9619 66.3828 46.014 66.7083 46.1182 66.9766C46.2249 67.2448 46.3747 67.4492 46.5674 67.5898C46.7601 67.7305 46.9854 67.8008 47.2432 67.8008C47.4333 67.8008 47.6038 67.7617 47.7549 67.6836C47.9085 67.6055 48.0348 67.4922 48.1338 67.3437C48.2354 67.1927 48.3018 67.0117 48.333 66.8008H49.9033C49.8773 67.2591 49.7523 67.6628 49.5283 68.0117C49.307 68.3581 49.001 68.6289 48.6104 68.8242C48.2197 69.0195 47.7575 69.1172 47.2236 69.1172ZM50.9688 69V63H52.582V64.0469H52.6445C52.7539 63.6745 52.9375 63.3932 53.1953 63.2031C53.4531 63.0104 53.75 62.9141 54.0859 62.9141C54.1693 62.9141 54.2591 62.9193 54.3555 62.9297C54.4518 62.9401 54.5365 62.9544 54.6094 62.9727V64.4492C54.5313 64.4258 54.4232 64.4049 54.2852 64.3867C54.1471 64.3685 54.0208 64.3594 53.9063 64.3594C53.6615 64.3594 53.4427 64.4128 53.25 64.5195C53.0599 64.6237 52.9089 64.7695 52.7969 64.957C52.6875 65.1445 52.6328 65.3607 52.6328 65.6055V69H50.9688ZM55.4697 69V63H57.1338V69H55.4697ZM56.3057 62.2266C56.0583 62.2266 55.846 62.1445 55.6689 61.9805C55.4945 61.8138 55.4072 61.6146 55.4072 61.3828C55.4072 61.1536 55.4945 60.957 55.6689 60.793C55.846 60.6263 56.0583 60.543 56.3057 60.543C56.5531 60.543 56.764 60.6263 56.9385 60.793C57.1156 60.957 57.2041 61.1536 57.2041 61.3828C57.2041 61.6146 57.1156 61.8138 56.9385 61.9805C56.764 62.1445 56.5531 62.2266 56.3057 62.2266ZM58.4668 71.25V63H60.1074V64.0078H60.1816C60.2546 63.8464 60.36 63.6823 60.498 63.5156C60.6387 63.3464 60.821 63.2057 61.0449 63.0938C61.2715 62.9792 61.5527 62.9219 61.8887 62.9219C62.3262 62.9219 62.7298 63.0365 63.0996 63.2656C63.4694 63.4922 63.765 63.8346 63.9863 64.293C64.2077 64.7487 64.3184 65.3203 64.3184 66.0078C64.3184 66.6771 64.2103 67.2422 63.9941 67.7031C63.7806 68.1615 63.4889 68.5091 63.1191 68.7461C62.752 68.9805 62.3405 69.0977 61.8848 69.0977C61.5618 69.0977 61.2871 69.0443 61.0605 68.9375C60.8366 68.8307 60.653 68.6966 60.5098 68.5352C60.3665 68.3711 60.2572 68.2057 60.1816 68.0391H60.1309V71.25H58.4668ZM60.0957 66C60.0957 66.3568 60.1452 66.668 60.2441 66.9336C60.3431 67.1992 60.4863 67.4062 60.6738 67.5547C60.8613 67.7005 61.0892 67.7734 61.3574 67.7734C61.6283 67.7734 61.8574 67.6992 62.0449 67.5508C62.2324 67.3997 62.3743 67.1914 62.4707 66.9258C62.5697 66.6576 62.6191 66.349 62.6191 66C62.6191 65.6536 62.571 65.349 62.4746 65.0859C62.3783 64.8229 62.2363 64.6172 62.0488 64.4687C61.8613 64.3203 61.6309 64.2461 61.3574 64.2461C61.0866 64.2461 60.8574 64.3177 60.6699 64.4609C60.485 64.6042 60.3431 64.8073 60.2441 65.0703C60.1452 65.3333 60.0957 65.6432 60.0957 66ZM68.6191 63V64.25H65.0059V63H68.6191ZM65.8262 61.5625H67.4902V67.1562C67.4902 67.3099 67.5137 67.4297 67.5605 67.5156C67.6074 67.599 67.6725 67.6576 67.7559 67.6914C67.8418 67.7253 67.9408 67.7422 68.0527 67.7422C68.1309 67.7422 68.209 67.7357 68.2871 67.7227C68.3652 67.707 68.4251 67.6953 68.4668 67.6875L68.7285 68.9258C68.6452 68.9518 68.528 68.9818 68.377 69.0156C68.2259 69.0521 68.0423 69.0742 67.8262 69.082C67.4251 69.0977 67.0736 69.0443 66.7715 68.9219C66.472 68.7995 66.2389 68.6094 66.0723 68.3516C65.9056 68.0937 65.8236 67.7682 65.8262 67.375V61.5625Z" fill="#FFA800"/>
<g clip-path="url(#clip0_501_11)">
<path d="M56.9961 10H24.0039C21.7926 10 20 11.7926 20 14.0039V46.9961C20 49.2074 21.7926 51 24.0039 51H56.9961C59.2074 51 61 49.2074 61 46.9961V14.0039C61 11.7926 59.2074 10 56.9961 10Z" fill="#3178C6"/>
<path d="M56.9961 10H24.0039C21.7926 10 20 11.7926 20 14.0039V46.9961C20 49.2074 21.7926 51 24.0039 51H56.9961C59.2074 51 61 49.2074 61 46.9961V14.0039C61 11.7926 59.2074 10 56.9961 10Z" fill="#FFA700"/>
<path fill-rule="evenodd" clip-rule="evenodd" d="M45.3799 42.6258V46.6345C46.0316 46.9686 46.8023 47.2191 47.6921 47.3862C48.582 47.5532 49.5198 47.6367 50.5057 47.6367C51.4665 47.6367 52.3793 47.5449 53.244 47.3611C54.1088 47.1774 54.8671 46.8746 55.5187 46.4528C56.1704 46.0312 56.6864 45.4799 57.0665 44.7992C57.4466 44.1186 57.6367 43.2772 57.6367 42.275C57.6367 41.5484 57.5281 40.9116 57.3109 40.3646C57.0936 39.8176 56.7804 39.3311 56.3709 38.9052C55.9616 38.4792 55.4707 38.0971 54.8984 37.7588C54.326 37.4206 53.6806 37.1012 52.9621 36.8005C52.4357 36.5834 51.9637 36.3725 51.5459 36.1679C51.1281 35.9632 50.7731 35.7545 50.4806 35.5416C50.1882 35.3286 49.9626 35.1031 49.8039 34.8651C49.6452 34.627 49.5657 34.3577 49.5657 34.057C49.5657 33.7814 49.6368 33.533 49.7788 33.3116C49.9209 33.0903 50.1214 32.9003 50.3804 32.7416C50.6394 32.583 50.9568 32.4598 51.3328 32.3721C51.7089 32.2844 52.1265 32.2406 52.5861 32.2406C52.9203 32.2406 53.2733 32.2656 53.6451 32.3157C54.0169 32.3658 54.3908 32.4431 54.7668 32.5474C55.1428 32.6519 55.5082 32.7834 55.8634 32.9421C56.2185 33.1008 56.5464 33.2845 56.8471 33.4933V29.7476C56.2373 29.5138 55.5709 29.3405 54.8482 29.2277C54.1255 29.115 53.2962 29.0586 52.3605 29.0586C51.408 29.0586 50.5057 29.1609 49.6535 29.3655C48.8013 29.5701 48.0514 29.8896 47.4039 30.3238C46.7563 30.7582 46.2446 31.3114 45.8687 31.9838C45.4927 32.656 45.3047 33.4598 45.3047 34.3952C45.3047 35.5895 45.6493 36.6084 46.3387 37.452C47.0279 38.2954 48.0743 39.0095 49.478 39.5942C50.0295 39.8197 50.5433 40.0409 51.0195 40.2581C51.4958 40.4753 51.9073 40.7008 52.2539 40.9346C52.6007 41.1684 52.8743 41.4231 53.0749 41.6988C53.2754 41.9743 53.3757 42.2875 53.3757 42.6383C53.3757 42.8972 53.313 43.1373 53.1877 43.3586C53.0623 43.58 52.8722 43.772 52.6174 43.9349C52.3626 44.0977 52.0451 44.2251 51.665 44.3169C51.2848 44.4088 50.8399 44.4547 50.3302 44.4547C49.4613 44.4547 48.6008 44.3023 47.7485 43.9975C46.8963 43.6927 46.1067 43.2355 45.3799 42.6258ZM38.6406 32.7488H43.7832V29.459H29.4492V32.7488H34.5667V47.3965H38.6406V32.7488Z" fill="#2B2B2B"/>
</g>
<defs>
<clipPath id="clip0_501_11">
<rect width="41" height="41" fill="white" transform="translate(20 10)"/>
</clipPath>
</defs>
</svg>
