<svg width="100" height="17" viewBox="0 0 100 17" fill="none" xmlns="http://www.w3.org/2000/svg">
<path fill-rule="evenodd" clip-rule="evenodd" d="M51.9754 0.464032C52.3148 0.501643 52.66 0.530217 53.0117 0.549511C54.2736 0.60202 55.5366 0.622535 56.8005 0.610568C59.4446 0.668206 62.0891 0.717051 64.7345 0.757104C65.285 0.767118 65.8355 0.775177 66.386 0.781527C67.1629 0.798379 67.9401 0.806438 68.7176 0.80595C69.7267 0.830373 70.7416 0.838432 71.7617 0.830373C71.8484 0.834524 71.9239 0.858947 71.9883 0.903641C72.0376 1.01525 72.0699 1.12906 72.0855 1.24556C72.1176 1.29367 72.1499 1.34252 72.1826 1.3921C71.5806 1.45242 70.976 1.49736 70.3692 1.52642C70.2406 1.58308 70.1111 1.63999 69.9806 1.69738C69.8633 1.72571 69.7445 1.75013 69.6244 1.77065C69.2037 1.75209 68.7827 1.73572 68.3614 1.7218C68.1341 1.75453 67.9181 1.81143 67.7137 1.89276C67.6545 1.89691 67.5949 1.90082 67.5356 1.90497C67.273 1.85442 67.0087 1.80972 66.7422 1.77065C66.5473 1.75648 66.353 1.76063 66.1593 1.78286C66.1214 1.89691 66.0674 2.00682 65.9974 2.11257C66.1558 2.14944 66.3177 2.17387 66.4832 2.18583C68.9657 2.23077 71.4485 2.27156 73.9313 2.30795C74.6995 2.33115 75.4657 2.37193 76.2306 2.43006C77.0939 2.4474 77.9576 2.45961 78.8212 2.46669C79.8167 2.46694 80.8099 2.50357 81.8005 2.5766C85.1457 2.68919 88.4919 2.77467 91.8394 2.83304C91.8905 2.91705 91.8799 2.99423 91.807 3.06505C91.6153 3.09436 91.421 3.11048 91.2241 3.1139C90.9618 3.18399 90.9725 3.23284 91.2565 3.26043C91.7536 3.26752 92.25 3.27973 92.7461 3.29707C92.7461 3.33785 92.7461 3.3784 92.7461 3.41918C91.7872 3.48732 90.8264 3.54007 89.864 3.57793C89.4715 3.67025 89.0722 3.74351 88.6658 3.79773C88.0288 3.79627 87.3922 3.79627 86.7552 3.79773C85.8475 3.83583 84.9407 3.88468 84.035 3.94427C83.614 3.95233 83.193 3.96063 82.772 3.96869C82.6856 3.98506 82.5994 4.00117 82.513 4.01754C82.4699 4.05002 82.4699 4.08275 82.513 4.11523C82.5696 4.12671 82.6234 4.14307 82.6749 4.16407C84.5968 4.21341 86.5181 4.27056 88.4391 4.33503C88.6794 4.36629 88.8575 4.45983 88.9734 4.61589C89.034 4.66987 89.1043 4.71456 89.1839 4.75022C89.7115 4.78099 90.2403 4.79711 90.7707 4.79906C90.9339 4.82422 91.0635 4.88918 91.1593 4.99445C91.8005 5.09238 92.4482 5.14953 93.1023 5.16541C93.5 5.299 93.8886 5.44553 94.2681 5.60501C95.4336 5.65215 96.5994 5.69684 97.7655 5.73934C97.7636 5.80162 97.7205 5.83825 97.636 5.84924C96.8135 5.86243 95.9932 5.89491 95.1749 5.94693C95.1182 5.95841 95.0644 5.97477 95.013 5.99578C94.9236 6.07955 94.8157 6.14451 94.6891 6.19116C94.3802 6.24929 94.067 6.29007 93.75 6.31327C93.579 6.4139 93.4495 6.53992 93.3614 6.69183C93.5188 6.76802 93.6914 6.81272 93.8795 6.82615C94.2681 6.83421 94.6567 6.84251 95.0453 6.85057C95.056 6.85863 95.067 6.86694 95.0777 6.875C94.9806 6.9319 94.8834 6.98905 94.7863 7.04596C94.9948 7.1246 95.2108 7.18981 95.4339 7.24134C96.4699 7.27553 97.5062 7.29189 98.5427 7.29018C98.7769 7.25575 99.0036 7.2069 99.2228 7.14365C99.1389 7.0926 99.0742 7.03155 99.0285 6.96048C99.3523 6.92799 99.6762 6.92799 100 6.96048C99.9741 7.07184 99.9255 7.17759 99.8543 7.27797C99.796 7.32242 99.7257 7.35075 99.6438 7.36345C99.0288 7.39056 98.4135 7.41498 97.7979 7.43672C97.637 7.46505 97.4858 7.50999 97.3446 7.57104C96.9262 7.67948 96.4945 7.72027 96.0492 7.69316C95.9401 7.69413 95.8323 7.68607 95.7254 7.66873C95.5933 7.68974 95.4637 7.71831 95.3368 7.75421C94.5648 7.70195 93.8199 7.78352 93.1023 7.99844C93.0324 8.03044 93.0217 8.07122 93.0699 8.12056C93.7351 8.24169 94.4041 8.34744 95.0777 8.43805C95.8546 8.43439 96.6318 8.43048 97.4093 8.42584C97.6253 8.4422 97.841 8.45832 98.057 8.47468C97.9566 8.5206 97.8484 8.55333 97.7332 8.57238C97.0735 8.61414 96.4152 8.66298 95.7578 8.71891C95.2983 8.71842 94.8394 8.70206 94.3815 8.67007C93.2001 8.78241 92.0181 8.89231 90.8355 8.99977C90.1924 9.00759 89.5554 9.05643 88.9249 9.14631C88.6979 9.22471 88.6007 9.35903 88.6334 9.54928C89.7325 9.56003 90.8284 9.51924 91.9203 9.42717C91.9472 9.43132 91.9744 9.43523 92.0013 9.43938C91.9514 9.47284 91.9084 9.50948 91.8718 9.54928C91.763 9.60668 91.6441 9.65137 91.5155 9.68361C91.0382 9.72879 90.5635 9.78179 90.0907 9.84236C88.8608 9.94664 87.6302 10.0485 86.399 10.1476C86.1843 10.2011 86.1519 10.2908 86.3018 10.4163C86.351 10.441 86.4051 10.4532 86.4637 10.4529C87.0249 10.4693 87.5865 10.4854 88.1477 10.5018C88.0787 10.6246 88.0032 10.7467 87.921 10.8681C88.0311 10.938 88.1606 10.9746 88.3096 10.978C88.4773 10.998 88.6392 10.9939 88.7953 10.9658C89.2817 10.9756 89.7675 10.9919 90.2526 11.0146C90.3805 11.0193 90.3805 11.0315 90.2526 11.0513C89.7056 11.115 89.1551 11.1478 88.601 11.149C88.2124 11.1602 87.8345 11.2132 87.4676 11.3077C87.4006 11.4318 87.4437 11.5253 87.5971 11.5886C89.1299 11.5966 90.6629 11.6049 92.1956 11.613C92.7092 11.6931 93.2273 11.75 93.75 11.784C95.0074 11.7827 96.2652 11.7705 97.5227 11.7473C97.8789 11.7359 98.2296 11.7603 98.5751 11.8206C98.4139 11.877 98.2409 11.9136 98.057 11.9305C96.8708 12.0157 95.6833 12.0932 94.4948 12.1625C94.4948 12.2033 94.4948 12.2438 94.4948 12.2846C94.5596 12.2927 94.6244 12.301 94.6891 12.3091C95.7798 12.3413 96.8756 12.3413 97.976 12.3091C98.2562 12.3208 98.5314 12.3535 98.8018 12.4067C98.7477 12.4231 98.694 12.4392 98.6399 12.4556C97.6888 12.4947 96.7387 12.5435 95.7902 12.6021C95.8303 12.7899 95.7438 12.9323 95.5311 13.0295C94.5813 13.1492 93.6315 13.2713 92.6813 13.3959C92.4437 13.433 92.2817 13.5348 92.1956 13.7011C92.3653 13.7331 92.5382 13.7495 92.7137 13.75C93.0376 13.7664 93.3614 13.7825 93.6852 13.7988C93.6072 13.9017 93.4887 13.9544 93.329 13.9576C92.8222 13.994 92.3148 14.0265 91.807 14.0553C91.4679 14.078 91.1334 14.1188 90.8031 14.1774C90.6658 14.2765 90.6768 14.3662 90.8355 14.446C91.0826 14.4714 91.331 14.4878 91.5803 14.4949C91.3948 14.5633 91.2005 14.6121 90.9974 14.6414C90.0094 14.724 89.0486 14.8949 88.1153 15.1543C88.2723 15.21 88.4398 15.2386 88.6172 15.2398C89.148 15.1699 89.6823 15.1416 90.2202 15.1543C90.3517 15.1626 90.4812 15.179 90.6088 15.2031C90.5657 15.2276 90.5223 15.252 90.4793 15.2764C89.9718 15.2908 89.4644 15.3069 88.9573 15.3253C87.4181 15.4479 85.8744 15.5211 84.3264 15.5451C80.0398 15.8499 75.7435 16.0208 71.4378 16.0579C70.8676 16.1295 70.2953 16.1376 69.7215 16.0824C67.3358 16.0743 64.9505 16.066 62.5648 16.0579C61.9764 16.0504 61.388 16.0382 60.7999 16.0213C60.4585 16.0484 60.1185 16.085 59.7798 16.1312C59.0078 16.1744 58.2361 16.1703 57.4644 16.119C47.5933 16.2018 37.7218 16.2548 27.8497 16.2777C27.6438 16.2961 27.4388 16.3166 27.2345 16.3388C27.192 16.5632 27.3216 16.6812 27.6231 16.6929C28.9407 16.7261 30.2574 16.7667 31.5738 16.815C31.6535 16.8519 31.6535 16.8846 31.5738 16.9127C30.7396 16.9792 29.9028 17.0077 29.0641 16.9982C25.0803 17.0099 21.1027 16.9 17.1308 16.6685C13.7111 16.3903 10.2895 16.1297 6.86528 15.887C6.39994 15.8442 5.93588 15.7954 5.4728 15.7404C5.33646 15.7307 5.26069 15.6779 5.24611 15.5817C5.39184 15.5746 5.53756 15.5666 5.68329 15.5573C6.59585 15.611 7.5081 15.6679 8.41969 15.7282C8.91677 15.6965 9.41354 15.6598 9.90933 15.6183C9.9524 15.602 9.9524 15.5858 9.90933 15.5695C9.59618 15.4772 9.27234 15.4203 8.93782 15.3985C7.17778 15.2642 5.41839 15.1299 3.65933 14.9956C3.65933 14.9631 3.65933 14.9303 3.65933 14.8979C4.10136 14.8681 4.54404 14.8395 4.98705 14.8124C4.87176 14.7159 4.73122 14.6509 4.56606 14.617C4.31768 14.6089 4.06962 14.6006 3.82124 14.5926C3.76457 14.5811 3.71082 14.5647 3.65933 14.5437C3.75745 14.4988 3.86561 14.4744 3.98316 14.4705C4.18815 14.4624 4.39346 14.4541 4.59845 14.446C5.0693 14.3596 5.05861 14.2863 4.56606 14.2262C3.99061 14.2284 3.41839 14.2001 2.84974 14.1408C2.64475 14.1598 2.43977 14.1637 2.23446 14.153C2.18038 14.1285 2.12662 14.1041 2.07254 14.0797C3.46535 14.0186 4.85784 13.9576 6.25 13.8965C6.26036 13.8423 6.23899 13.7974 6.18523 13.7622C6.08582 13.717 5.97798 13.6926 5.8614 13.6889C5.08225 13.6281 4.30505 13.5549 3.52979 13.4691C3.02332 13.441 2.51587 13.4247 2.00777 13.4203C1.50777 13.3876 1.01127 13.3387 0.518135 13.2737C0.299352 13.1941 0.126652 13.0762 0 12.9196C0.0645402 12.8708 0.140123 12.8341 0.226684 12.8097C1.05949 12.7621 1.89054 12.7174 2.72021 12.6754C2.83938 12.67 2.95823 12.6617 3.07642 12.651C3.3954 12.6075 3.67584 12.5057 3.91839 12.3457C3.9796 12.322 4.04437 12.3056 4.11269 12.2968C6.46341 12.1347 8.81671 11.9964 11.1723 11.8817C11.6742 11.8721 12.1762 11.876 12.6781 11.8939C12.9974 11.8931 13.3157 11.8809 13.6334 11.8572C13.806 11.7964 13.8815 11.6948 13.8601 11.5519C13.0593 11.5302 12.2607 11.4897 11.4637 11.4298C11.6399 11.2374 11.8773 11.1111 12.1762 11.0513C13.2915 10.9094 14.4142 10.8239 15.544 10.7948C15.5398 10.7194 15.4861 10.6744 15.3821 10.6605C13.6331 10.7389 11.8844 10.8283 10.136 10.9292C9.44074 10.9939 8.75 10.9775 8.06347 10.8803C7.83161 10.8132 7.60492 10.7399 7.38342 10.6605C6.29145 10.5218 5.2011 10.3753 4.11269 10.2209C4.07416 10.196 4.04177 10.1674 4.01554 10.1354C4.07966 10.091 4.15512 10.0666 4.24223 10.0622C4.82642 10.1794 5.42001 10.2241 6.02332 10.1965C6.3193 10.1704 6.57837 10.0849 6.80052 9.94005C6.81801 9.93858 6.82902 9.93052 6.8329 9.91563C6.65058 9.8912 6.46729 9.88314 6.28238 9.8912C5.22668 9.86995 4.19041 9.75199 3.17358 9.53707C3.27558 9.498 3.38342 9.47357 3.49741 9.4638C3.78886 9.45575 4.08031 9.44744 4.37176 9.43938C4.56574 9.38712 4.63569 9.28527 4.58225 9.1341C4.44462 9.07206 4.30959 9.00686 4.17746 8.93872C4.29048 8.85763 4.40933 8.78021 4.53368 8.7067C4.32934 8.66616 4.12435 8.62952 3.91839 8.5968C3.9307 8.51694 3.97409 8.44782 4.04793 8.3892C4.87986 8.23852 5.71114 8.08368 6.54145 7.92517C6.39573 7.79085 6.20661 7.72149 5.97474 7.71758C5.76457 7.73297 5.55408 7.74518 5.34326 7.75421C5.18426 7.77351 5.05473 7.83041 4.95466 7.92517C4.83031 7.94373 4.71179 7.93152 4.59845 7.88854C4.24579 7.99722 3.87889 8.04607 3.49741 8.03508C3.06218 8.02238 2.63051 7.98574 2.20207 7.92517C1.94689 7.86143 1.70952 7.77204 1.48964 7.65652C2.25 7.43623 3.03789 7.32218 3.85363 7.31461C4.02396 7.2748 4.18588 7.2218 4.33938 7.15586C4.29955 7.13681 4.25648 7.1246 4.20984 7.11922C3.76587 7.10237 3.32351 7.11458 2.88212 7.15586C2.81736 7.1478 2.75259 7.13949 2.68782 7.13143C2.96211 6.8325 3.34003 6.65739 3.82124 6.60635C3.9022 6.57997 3.97766 6.54749 4.04793 6.50866C4.25972 6.35699 4.48089 6.21461 4.71179 6.08126C4.72766 6.04975 4.73316 6.01703 4.72798 5.98357C4.43426 5.99285 4.14281 5.98064 3.85363 5.94693C3.58452 5.87 3.33614 5.76816 3.10881 5.64165C3.20175 5.46361 3.28821 5.28434 3.36788 5.10435C3.25939 5.1002 3.15155 5.10435 3.04404 5.11656C2.91969 5.17566 2.80084 5.24087 2.68782 5.31194C2.58549 5.35004 2.48284 5.35419 2.38018 5.32415C2.28692 5.22817 2.20596 5.12633 2.13731 5.01887C2.2147 4.85304 2.33355 4.7065 2.49352 4.57926C2.84909 4.39291 3.2215 4.22611 3.61075 4.07859C3.63277 4.04733 3.62759 4.01876 3.59456 3.99312C3.42811 3.97309 3.26619 3.9853 3.10881 4.02975C3.02267 3.86709 2.9362 3.70444 2.84974 3.54129C3.21211 3.41698 3.57902 3.29902 3.95078 3.18717C4.16677 3.17911 4.38245 3.1708 4.59845 3.16274C4.94398 3.07311 4.94398 2.98372 4.59845 2.89409C4.28109 2.87895 3.96794 2.84647 3.65933 2.7964C4.34909 2.56878 5.04016 2.34092 5.73187 2.11257C5.89573 2.07569 6.05764 2.0349 6.21762 1.99045C6.72863 1.90277 7.23608 1.81729 7.73964 1.73401C8.50972 1.64389 9.27623 1.53814 10.0389 1.41652C13.2753 0.938321 16.5353 0.576132 19.8187 0.329707C21.2105 0.253264 22.603 0.183903 23.9961 0.122114C24.2681 0.133348 24.5379 0.157771 24.8057 0.195382C25.3575 0.163388 25.908 0.175599 26.4573 0.232016C26.727 0.248379 26.9971 0.248379 27.2668 0.232016C28.0881 0.158748 28.9084 0.0813277 29.728 0C29.9077 0.0146536 30.0803 0.0512877 30.2461 0.109902C30.3595 0.114054 30.4728 0.117962 30.5861 0.122114C31.0975 0.082793 31.6101 0.0664298 32.1244 0.0732682C32.1328 0.109414 32.1221 0.141896 32.092 0.170959C31.9207 0.234458 31.7481 0.295515 31.5738 0.354129C31.5453 0.387344 31.5347 0.423978 31.5415 0.464032C31.9657 0.463543 32.3867 0.491874 32.8044 0.549511C34.3922 0.598845 35.979 0.582482 37.5648 0.500666C38.4229 0.484303 39.2811 0.48821 40.1392 0.512877C40.7176 0.496758 41.2953 0.468428 41.8718 0.427398C42.3575 0.423246 42.8433 0.419338 43.329 0.415186C46.0382 0.421048 48.7477 0.4252 51.4573 0.427398C51.6286 0.451332 51.8015 0.463543 51.9754 0.464032Z" fill="#FFA700"/>
</svg>
