<svg width="124" height="76" viewBox="0 0 124 76" fill="none" xmlns="http://www.w3.org/2000/svg">
<path d="M84.7432 9.375C84.7432 4.19733 88.9406 0 94.1182 0H94.3731V37.5H84.7432V9.375Z" fill="white"/>
<path d="M118.575 37.6875C118.575 45.3363 112.17 51.75 104.003 51.75C95.8356 51.75 89.4307 45.3363 89.4307 37.6875C89.4307 30.0387 95.8356 23.625 104.003 23.625C112.17 23.625 118.575 30.0387 118.575 37.6875Z" fill="black" stroke="white" stroke-width="9.375"/>
<path d="M42.3716 26.25C42.3716 21.0723 46.5689 16.875 51.7466 16.875H52.0015V37.5H42.3716V26.25Z" fill="#FFA800"/>
<path d="M71.2614 37.5H80.8913V48.75C80.8913 53.9277 76.6939 58.125 71.5163 58.125H71.2614V37.5Z" fill="white"/>
<path d="M76.2037 37.6875C76.2037 45.3363 69.7988 51.75 61.6314 51.75C53.464 51.75 47.0591 45.3363 47.0591 37.6875C47.0591 30.0387 53.464 23.625 61.6314 23.625C69.7988 23.625 76.2037 30.0387 76.2037 37.6875Z" fill="black" stroke="white" stroke-width="9.375"/>
<path d="M28.8897 37.6875H38.5196V65.8125C38.5196 70.9902 34.3223 75.1875 29.1446 75.1875H28.8897V37.6875Z" fill="white"/>
<path d="M33.8321 37.6875C33.8321 45.3363 27.4272 51.75 19.2598 51.75C11.0924 51.75 4.6875 45.3363 4.6875 37.6875C4.6875 30.0387 11.0924 23.625 19.2598 23.625C27.4272 23.625 33.8321 30.0387 33.8321 37.6875Z" fill="black" stroke="white" stroke-width="9.375"/>
</svg>
