<svg width="80" height="80" viewBox="0 0 80 80" fill="none" xmlns="http://www.w3.org/2000/svg">
<rect width="80" height="80" rx="8" fill="#2B2B2B"/>
<path d="M36 63.5859C35.9453 63.3958 35.8685 63.2279 35.7695 63.082C35.6706 62.9336 35.5495 62.8086 35.4063 62.707C35.2656 62.6029 35.1042 62.5234 34.9219 62.4688C34.7422 62.4141 34.543 62.3867 34.3242 62.3867C33.9154 62.3867 33.556 62.4883 33.2461 62.6914C32.9388 62.8945 32.6992 63.1901 32.5273 63.5781C32.3555 63.9635 32.2695 64.4349 32.2695 64.9922C32.2695 65.5495 32.3542 66.0234 32.5234 66.4141C32.6927 66.8047 32.9323 67.1029 33.2422 67.3086C33.5521 67.5117 33.918 67.6133 34.3398 67.6133C34.7227 67.6133 35.0495 67.5456 35.3203 67.4102C35.5938 67.2721 35.8021 67.0781 35.9453 66.8281C36.0911 66.5781 36.1641 66.2826 36.1641 65.9414L36.5078 65.9922H34.4453V64.7187H37.793V65.7266C37.793 66.4297 37.6445 67.0339 37.3477 67.5391C37.0508 68.0417 36.6419 68.4297 36.1211 68.7031C35.6003 68.974 35.0039 69.1094 34.332 69.1094C33.582 69.1094 32.9232 68.944 32.3555 68.6133C31.7878 68.2799 31.3451 67.8073 31.0273 67.1953C30.7122 66.5807 30.5547 65.8516 30.5547 65.0078C30.5547 64.3594 30.6484 63.7812 30.8359 63.2734C31.026 62.763 31.2917 62.3307 31.6328 61.9766C31.974 61.6224 32.3711 61.3529 32.8242 61.168C33.2773 60.9831 33.7682 60.8906 34.2969 60.8906C34.75 60.8906 35.1719 60.957 35.5625 61.0898C35.9531 61.2201 36.2995 61.4049 36.6016 61.6445C36.9063 61.8841 37.1549 62.1693 37.3477 62.5C37.5404 62.8281 37.6641 63.1901 37.7188 63.5859H36ZM40.7549 61V69H39.0635V61H40.7549ZM41.8418 62.3945V61H48.4121V62.3945H45.9629V69H44.291V62.3945H41.8418Z" fill="#FFA800"/>
<g clip-path="url(#clip0_31_516)">
<path d="M59.931 29.1553L41.8457 11.071C40.8049 10.0295 39.1157 10.0295 38.0733 11.071L34.3185 14.8267L39.0822 19.5905C40.1897 19.2167 41.4589 19.4674 42.3412 20.3497C42.7617 20.7706 43.0552 21.3013 43.1883 21.8812C43.3213 22.461 43.2885 23.0666 43.0936 23.6287L47.6847 28.2205C48.7954 27.8375 50.0774 28.085 50.964 28.9735C52.2043 30.2128 52.2043 32.222 50.964 33.4619C50.6692 33.7568 50.3193 33.9908 49.9341 34.1504C49.5489 34.31 49.136 34.3921 48.7191 34.3921C48.3022 34.3921 47.8893 34.31 47.5041 34.1504C47.119 33.9908 46.769 33.7568 46.4742 33.4619C46.0314 33.0188 45.7295 32.4546 45.6066 31.8403C45.4837 31.226 45.5453 30.5891 45.7835 30.0097L41.5022 25.728L41.5015 36.9962C41.8121 37.1491 42.0957 37.3517 42.3412 37.596C43.5812 38.8353 43.5812 40.8438 42.3412 42.0857C41.1012 43.3251 39.0914 43.3251 37.8528 42.0857C36.6131 40.8441 36.5114 38.8356 37.7507 37.596C38.0572 37.2898 38.3594 37.0585 38.6875 36.9036V25.5312C38.3594 25.3763 38.0575 25.1466 37.7504 24.8385C36.8116 23.9001 36.6361 22.5219 37.1178 21.3682L32.4476 16.6718L20.0595 29.0716C19.0177 30.1141 19.0243 31.8033 20.0661 32.8451L38.1543 50.9293C39.1954 51.9708 40.8859 51.9708 41.9287 50.9293L59.9297 32.9291C60.9715 31.8869 60.9724 30.1968 59.931 29.1553Z" fill="#FFA800"/>
</g>
<defs>
<clipPath id="clip0_31_516">
<rect width="42" height="42" fill="white" transform="translate(19 10)"/>
</clipPath>
</defs>
</svg>
