<svg width="80" height="80" viewBox="0 0 80 80" fill="none" xmlns="http://www.w3.org/2000/svg">
<rect width="80" height="80" rx="8" fill="#2B2B2B"/>
<path d="M15.8984 61H17.5703V66.5781C17.5703 67.0937 17.4544 67.5417 17.2227 67.9219C16.9935 68.3021 16.6745 68.5951 16.2656 68.8008C15.8568 69.0065 15.3815 69.1094 14.8398 69.1094C14.3581 69.1094 13.9206 69.0247 13.5273 68.8555C13.1367 68.6836 12.8268 68.4232 12.5977 68.0742C12.3685 67.7227 12.2552 67.2812 12.2578 66.75H13.9414C13.9466 66.9609 13.9896 67.1419 14.0703 67.293C14.1536 67.4414 14.2669 67.556 14.4102 67.6367C14.556 67.7148 14.7279 67.7539 14.9258 67.7539C15.1341 67.7539 15.3099 67.7096 15.4531 67.6211C15.599 67.5299 15.7096 67.3971 15.7852 67.2227C15.8607 67.0482 15.8984 66.8333 15.8984 66.5781V61ZM20.6484 69.1133C20.2656 69.1133 19.9245 69.0469 19.625 68.9141C19.3255 68.7786 19.0885 68.5794 18.9141 68.3164C18.7422 68.0508 18.6563 67.7201 18.6563 67.3242C18.6563 66.9909 18.7174 66.7109 18.8398 66.4844C18.9622 66.2578 19.1289 66.0755 19.3398 65.9375C19.5508 65.7995 19.7904 65.6953 20.0586 65.625C20.3294 65.5547 20.6133 65.5052 20.9102 65.4766C21.2591 65.4401 21.5404 65.4062 21.7539 65.375C21.9674 65.3411 22.1224 65.2917 22.2188 65.2266C22.3151 65.1615 22.3633 65.0651 22.3633 64.9375V64.9141C22.3633 64.6667 22.2852 64.4753 22.1289 64.3398C21.9753 64.2044 21.7565 64.1367 21.4727 64.1367C21.1732 64.1367 20.9349 64.2031 20.7578 64.3359C20.5807 64.4661 20.4635 64.6302 20.4063 64.8281L18.8672 64.7031C18.9453 64.3385 19.099 64.0234 19.3281 63.7578C19.5573 63.4896 19.8529 63.2839 20.2148 63.1406C20.5794 62.9948 21.0013 62.9219 21.4805 62.9219C21.8138 62.9219 22.1328 62.9609 22.4375 63.0391C22.7448 63.1172 23.0169 63.2383 23.2539 63.4023C23.4935 63.5664 23.6823 63.7773 23.8203 64.0352C23.9583 64.2904 24.0273 64.5964 24.0273 64.9531V69H22.4492V68.168H22.4023C22.306 68.3555 22.1771 68.5208 22.0156 68.6641C21.8542 68.8047 21.6602 68.9154 21.4336 68.9961C21.207 69.0742 20.9453 69.1133 20.6484 69.1133ZM21.125 67.9648C21.3698 67.9648 21.5859 67.9167 21.7734 67.8203C21.9609 67.7214 22.1081 67.5885 22.2148 67.4219C22.3216 67.2552 22.375 67.0664 22.375 66.8555V66.2188C22.3229 66.2526 22.2513 66.2839 22.1602 66.3125C22.0716 66.3385 21.9714 66.3633 21.8594 66.3867C21.7474 66.4076 21.6354 66.4271 21.5234 66.4453C21.4115 66.4609 21.3099 66.4753 21.2188 66.4883C21.0234 66.5169 20.8529 66.5625 20.707 66.625C20.5612 66.6875 20.4479 66.7721 20.3672 66.8789C20.2865 66.9831 20.2461 67.1133 20.2461 67.2695C20.2461 67.4961 20.3281 67.6693 20.4922 67.7891C20.6589 67.9062 20.8698 67.9648 21.125 67.9648ZM30.6973 63L28.5996 69H26.7246L24.627 63H26.3848L27.6309 67.293H27.6934L28.9355 63H30.6973ZM33.0986 69.1133C32.7158 69.1133 32.3747 69.0469 32.0752 68.9141C31.7757 68.7786 31.5387 68.5794 31.3643 68.3164C31.1924 68.0508 31.1064 67.7201 31.1064 67.3242C31.1064 66.9909 31.1676 66.7109 31.29 66.4844C31.4124 66.2578 31.5791 66.0755 31.79 65.9375C32.001 65.7995 32.2406 65.6953 32.5088 65.625C32.7796 65.5547 33.0635 65.5052 33.3604 65.4766C33.7093 65.4401 33.9906 65.4062 34.2041 65.375C34.4176 65.3411 34.5726 65.2917 34.6689 65.2266C34.7653 65.1615 34.8135 65.0651 34.8135 64.9375V64.9141C34.8135 64.6667 34.7354 64.4753 34.5791 64.3398C34.4255 64.2044 34.2067 64.1367 33.9229 64.1367C33.6234 64.1367 33.3851 64.2031 33.208 64.3359C33.0309 64.4661 32.9137 64.6302 32.8564 64.8281L31.3174 64.7031C31.3955 64.3385 31.5492 64.0234 31.7783 63.7578C32.0075 63.4896 32.3031 63.2839 32.665 63.1406C33.0296 62.9948 33.4515 62.9219 33.9307 62.9219C34.264 62.9219 34.583 62.9609 34.8877 63.0391C35.195 63.1172 35.4671 63.2383 35.7041 63.4023C35.9437 63.5664 36.1325 63.7773 36.2705 64.0352C36.4085 64.2904 36.4775 64.5964 36.4775 64.9531V69H34.8994V68.168H34.8525C34.7562 68.3555 34.6273 68.5208 34.4658 68.6641C34.3044 68.8047 34.1104 68.9154 33.8838 68.9961C33.6572 69.0742 33.3955 69.1133 33.0986 69.1133ZM33.5752 67.9648C33.82 67.9648 34.0361 67.9167 34.2236 67.8203C34.4111 67.7214 34.5583 67.5885 34.665 67.4219C34.7718 67.2552 34.8252 67.0664 34.8252 66.8555V66.2188C34.7731 66.2526 34.7015 66.2839 34.6104 66.3125C34.5218 66.3385 34.4215 66.3633 34.3096 66.3867C34.1976 66.4076 34.0856 66.4271 33.9736 66.4453C33.8617 66.4609 33.7601 66.4753 33.6689 66.4883C33.4736 66.5169 33.3031 66.5625 33.1572 66.625C33.0114 66.6875 32.8981 66.7721 32.8174 66.8789C32.7367 66.9831 32.6963 67.1133 32.6963 67.2695C32.6963 67.4961 32.7783 67.6693 32.9424 67.7891C33.109 67.9062 33.32 67.9648 33.5752 67.9648ZM42.1396 63.3008C42.1084 62.9857 41.9743 62.7409 41.7373 62.5664C41.5003 62.3919 41.1787 62.3047 40.7725 62.3047C40.4964 62.3047 40.2633 62.3437 40.0732 62.4219C39.8831 62.4974 39.7373 62.6029 39.6357 62.7383C39.5368 62.8737 39.4873 63.0273 39.4873 63.1992C39.4821 63.3424 39.512 63.4674 39.5771 63.5742C39.6449 63.681 39.7373 63.7734 39.8545 63.8516C39.9717 63.9271 40.1071 63.9935 40.2607 64.0508C40.4144 64.1055 40.5785 64.1523 40.7529 64.1914L41.4717 64.3633C41.8206 64.4414 42.141 64.5456 42.4326 64.6758C42.7243 64.806 42.9769 64.9661 43.1904 65.1562C43.404 65.3464 43.5693 65.5703 43.6865 65.8281C43.8063 66.0859 43.8675 66.3815 43.8701 66.7148C43.8675 67.2044 43.7425 67.6289 43.4951 67.9883C43.2503 68.3451 42.8962 68.6224 42.4326 68.8203C41.9717 69.0156 41.4157 69.1133 40.7646 69.1133C40.1188 69.1133 39.5563 69.0143 39.0771 68.8164C38.6006 68.6185 38.2282 68.3255 37.96 67.9375C37.6943 67.5469 37.555 67.0638 37.542 66.4883H39.1787C39.1969 66.7565 39.2738 66.9805 39.4092 67.1602C39.5472 67.3372 39.7308 67.4714 39.96 67.5625C40.1917 67.651 40.4535 67.6953 40.7451 67.6953C41.0316 67.6953 41.2803 67.6536 41.4912 67.5703C41.7048 67.487 41.8701 67.3711 41.9873 67.2227C42.1045 67.0742 42.1631 66.9036 42.1631 66.7109C42.1631 66.5312 42.1097 66.3802 42.0029 66.2578C41.8988 66.1354 41.7451 66.0312 41.542 65.9453C41.3415 65.8594 41.0954 65.7812 40.8037 65.7109L39.9326 65.4922C39.2581 65.3281 38.7256 65.0716 38.335 64.7227C37.9443 64.3737 37.7503 63.9036 37.7529 63.3125C37.7503 62.8281 37.8792 62.4049 38.1396 62.043C38.4027 61.681 38.7633 61.3984 39.2217 61.1953C39.68 60.9922 40.2008 60.8906 40.7842 60.8906C41.3779 60.8906 41.8962 60.9922 42.3389 61.1953C42.7842 61.3984 43.1305 61.681 43.3779 62.043C43.6253 62.4049 43.7529 62.8242 43.7607 63.3008H42.1396ZM47.6875 69.1172C47.0729 69.1172 46.5443 68.987 46.1016 68.7266C45.6615 68.4635 45.3229 68.099 45.0859 67.6328C44.8516 67.1667 44.7344 66.6302 44.7344 66.0234C44.7344 65.4089 44.8529 64.8698 45.0898 64.4062C45.3294 63.9401 45.6693 63.5768 46.1094 63.3164C46.5495 63.0534 47.0729 62.9219 47.6797 62.9219C48.2031 62.9219 48.6615 63.0169 49.0547 63.207C49.4479 63.3971 49.7591 63.6641 49.9883 64.0078C50.2174 64.3516 50.3438 64.7552 50.3672 65.2188H48.7969C48.7526 64.9193 48.6354 64.6784 48.4453 64.4961C48.2578 64.3112 48.0117 64.2187 47.707 64.2187C47.4492 64.2187 47.224 64.2891 47.0313 64.4297C46.8411 64.5677 46.6927 64.7695 46.5859 65.0352C46.4792 65.3008 46.4258 65.6224 46.4258 66C46.4258 66.3828 46.4779 66.7083 46.582 66.9766C46.6888 67.2448 46.8385 67.4492 47.0313 67.5898C47.224 67.7305 47.4492 67.8008 47.707 67.8008C47.8971 67.8008 48.0677 67.7617 48.2188 67.6836C48.3724 67.6055 48.4987 67.4922 48.5977 67.3437C48.6992 67.1927 48.7656 67.0117 48.7969 66.8008H50.3672C50.3411 67.2591 50.2161 67.6628 49.9922 68.0117C49.7708 68.3581 49.4648 68.6289 49.0742 68.8242C48.6836 69.0195 48.2214 69.1172 47.6875 69.1172ZM51.4326 69V63H53.0459V64.0469H53.1084C53.2178 63.6745 53.4014 63.3932 53.6592 63.2031C53.917 63.0104 54.2139 62.9141 54.5498 62.9141C54.6331 62.9141 54.723 62.9193 54.8193 62.9297C54.9157 62.9401 55.0003 62.9544 55.0732 62.9727V64.4492C54.9951 64.4258 54.887 64.4049 54.749 64.3867C54.611 64.3685 54.4847 64.3594 54.3701 64.3594C54.1253 64.3594 53.9066 64.4128 53.7139 64.5195C53.5238 64.6237 53.3727 64.7695 53.2607 64.957C53.1514 65.1445 53.0967 65.3607 53.0967 65.6055V69H51.4326ZM55.9336 69V63H57.5977V69H55.9336ZM56.7695 62.2266C56.5221 62.2266 56.3099 62.1445 56.1328 61.9805C55.9583 61.8138 55.8711 61.6146 55.8711 61.3828C55.8711 61.1536 55.9583 60.957 56.1328 60.793C56.3099 60.6263 56.5221 60.543 56.7695 60.543C57.0169 60.543 57.2279 60.6263 57.4023 60.793C57.5794 60.957 57.668 61.1536 57.668 61.3828C57.668 61.6146 57.5794 61.8138 57.4023 61.9805C57.2279 62.1445 57.0169 62.2266 56.7695 62.2266ZM58.9307 71.25V63H60.5713V64.0078H60.6455C60.7184 63.8464 60.8239 63.6823 60.9619 63.5156C61.1025 63.3464 61.2848 63.2057 61.5088 63.0938C61.7354 62.9792 62.0166 62.9219 62.3525 62.9219C62.79 62.9219 63.1937 63.0365 63.5635 63.2656C63.9333 63.4922 64.2288 63.8346 64.4502 64.293C64.6715 64.7487 64.7822 65.3203 64.7822 66.0078C64.7822 66.6771 64.6742 67.2422 64.458 67.7031C64.2445 68.1615 63.9528 68.5091 63.583 68.7461C63.2158 68.9805 62.8044 69.0977 62.3486 69.0977C62.0257 69.0977 61.751 69.0443 61.5244 68.9375C61.3005 68.8307 61.1169 68.6966 60.9736 68.5352C60.8304 68.3711 60.721 68.2057 60.6455 68.0391H60.5947V71.25H58.9307ZM60.5596 66C60.5596 66.3568 60.609 66.668 60.708 66.9336C60.807 67.1992 60.9502 67.4062 61.1377 67.5547C61.3252 67.7005 61.5531 67.7734 61.8213 67.7734C62.0921 67.7734 62.3213 67.6992 62.5088 67.5508C62.6963 67.3997 62.8382 67.1914 62.9346 66.9258C63.0335 66.6576 63.083 66.349 63.083 66C63.083 65.6536 63.0348 65.349 62.9385 65.0859C62.8421 64.8229 62.7002 64.6172 62.5127 64.4687C62.3252 64.3203 62.0947 64.2461 61.8213 64.2461C61.5505 64.2461 61.3213 64.3177 61.1338 64.4609C60.9489 64.6042 60.807 64.8073 60.708 65.0703C60.609 65.3333 60.5596 65.6432 60.5596 66ZM69.083 63V64.25H65.4697V63H69.083ZM66.29 61.5625H67.9541V67.1562C67.9541 67.3099 67.9775 67.4297 68.0244 67.5156C68.0713 67.599 68.1364 67.6576 68.2197 67.6914C68.3057 67.7253 68.4046 67.7422 68.5166 67.7422C68.5947 67.7422 68.6729 67.7357 68.751 67.7227C68.8291 67.707 68.889 67.6953 68.9307 67.6875L69.1924 68.9258C69.109 68.9518 68.9919 68.9818 68.8408 69.0156C68.6898 69.0521 68.5062 69.0742 68.29 69.082C67.889 69.0977 67.5374 69.0443 67.2354 68.9219C66.9359 68.7995 66.7028 68.6094 66.5361 68.3516C66.3695 68.0937 66.2874 67.7682 66.29 67.375V61.5625Z" fill="#FFA800"/>
<g clip-path="url(#clip0_31_507)">
<path d="M19.6562 10.3281V51.3438H60.6719V10.3281H19.6562ZM41.3515 45.2777C40.7462 46.5078 39.5905 47.316 38.2514 47.7062C36.1938 48.1787 34.2257 47.9093 32.7616 47.0305C31.7818 46.4294 31.0166 45.5041 30.4972 44.438L33.6209 42.5251C33.6482 42.5365 33.7302 42.6849 33.8398 42.8765C34.2381 43.5439 34.5817 44.0164 35.257 44.3481C35.9204 44.5745 37.377 44.7192 37.9394 43.5518C38.2829 42.9579 38.1737 41.0488 38.1737 38.9367C38.1733 35.6177 38.1887 32.3125 38.1887 29.0312H42.0308C42.0308 32.6406 42.0505 36.059 42.0308 39.5811C42.039 41.7402 42.2263 43.665 41.3515 45.2777ZM57.2899 44.1923C55.9544 48.7604 48.5086 48.9087 45.5332 45.8906C44.9045 45.1802 44.5104 44.8091 44.1354 43.9892C45.7166 43.0796 45.7166 43.0796 47.2552 42.1894C48.0909 43.474 48.8636 44.1805 50.2539 44.4695C52.14 44.6999 54.0375 44.0518 53.6119 42.0486C53.1745 40.4126 49.7499 40.0146 47.4192 38.265C45.0531 36.6759 44.4986 32.8145 46.4431 30.6082C47.0911 29.7922 48.1962 29.1832 49.3558 28.8905L50.566 28.734C52.8894 28.687 54.3417 29.3006 55.4078 30.4911C55.7044 30.7916 55.9465 31.1158 56.3994 31.8183C55.1617 32.6072 55.1656 32.5996 53.3928 33.7474C53.0141 32.9317 52.3857 32.4198 51.7216 32.1973C50.6906 31.885 49.3906 32.2246 49.1209 33.3139C49.0274 33.6496 49.0467 33.962 49.1954 34.5165C49.6131 35.4691 51.0148 35.8832 52.2722 36.461C55.8918 37.929 57.114 39.503 57.4146 41.3766C57.704 42.9897 57.3447 44.0361 57.2899 44.1923Z" fill="#FFA800"/>
</g>
<defs>
<clipPath id="clip0_31_507">
<rect width="42" height="42" fill="white" transform="translate(19 10)"/>
</clipPath>
</defs>
</svg>
