<svg width="60" height="60" viewBox="0 0 60 60" fill="none" xmlns="http://www.w3.org/2000/svg">
<rect x="1" y="1" width="58" height="58" rx="9" stroke="#FFA700" stroke-width="2"/>
<path d="M15.9375 11.8156C15.5438 11.893 14.8195 12.1531 14.4258 12.357C14.1656 12.4906 13.7648 12.8141 13.3992 13.1797C12.907 13.6719 12.7383 13.8898 12.5063 14.375C11.8453 15.7461 11.8383 17.1664 12.4852 18.4883C12.8367 19.2055 13.2656 19.7398 13.8352 20.1758C14.7 20.8297 15.5859 21.125 16.7109 21.125C17.9977 21.125 19.0453 20.6891 19.9875 19.7609C20.4656 19.2828 20.6133 19.0859 20.8805 18.5234C21.2602 17.7359 21.3727 17.2437 21.3656 16.3789C21.3586 15.5984 21.225 15.0711 20.8523 14.3258C20.318 13.257 19.3688 12.4414 18.1945 12.0336C17.7023 11.8648 17.4492 11.8227 16.8516 11.8016C16.4438 11.7945 16.0359 11.8016 15.9375 11.8156ZM17.5898 13.482C18.2859 13.6719 19.1156 14.3469 19.4391 14.9797C19.8047 15.6898 19.9031 16.6109 19.6992 17.307C19.2141 18.9383 17.5406 19.8945 15.9164 19.4727C15.3539 19.325 15.0375 19.1492 14.5734 18.7344C13.2938 17.5602 13.2586 15.5141 14.4961 14.2695C15.3117 13.4609 16.4578 13.1656 17.5898 13.482Z" fill="#FFA700"/>
<path d="M12 34.8711V47L16.6969 46.9859L21.3867 46.9648L21.4078 34.85L21.4219 22.7422H16.7109H12V34.8711ZM19.8047 34.8711V45.4531L16.6969 45.4391L13.582 45.418L13.5609 34.85L13.5469 24.2891H16.6758H19.8047V34.8711Z" fill="#FFA700"/>
<path d="M24.5156 34.8711V47H29.2266H33.9375V40.1094C33.9375 33.3383 33.9375 33.2188 34.0781 32.8391C34.275 32.3188 34.7742 31.8055 35.3086 31.5594C36.4266 31.0461 37.8047 31.5383 38.3461 32.6422L38.543 33.043L38.5781 40.0039L38.6133 46.9648L43.3102 46.9859L48 47V39.2164C48 32.8883 47.9789 31.2852 47.8945 30.6875C47.3531 26.6586 44.2383 23.4875 40.1812 22.8406C38.8383 22.6297 37.1367 22.7844 35.9273 23.2344C35.4352 23.4172 34.6055 23.8391 34.2398 24.0922L33.9375 24.2961V23.5156V22.7422H29.2266H24.5156V34.8711ZM32.3203 26.1664V28.0438L33.3469 26.975C34.6687 25.5969 35.3789 25.0906 36.5672 24.6828C39.3516 23.7195 42.5297 24.6195 44.5617 26.9398C45.4266 27.9242 45.9891 29.0773 46.2914 30.4766C46.4109 31.032 46.418 31.5734 46.418 38.2461V45.418L43.3102 45.4391L40.2023 45.4531L40.1812 39.2164C40.1602 32.9727 40.1602 32.9727 40.0055 32.5086C39.3586 30.6031 37.3969 29.457 35.4703 29.8508C34.8656 29.9773 34.0148 30.4203 33.593 30.8422C32.8898 31.5313 32.5312 32.2344 32.3906 33.1977C32.3484 33.4789 32.3203 36.1016 32.3203 39.568V45.4531L29.2125 45.4391L26.0977 45.418L26.0766 34.85L26.0625 24.2891H29.1914H32.3203V26.1664Z" fill="#FFA700"/>
</svg>
