<svg width="80" height="80" viewBox="0 0 80 80" fill="none" xmlns="http://www.w3.org/2000/svg">
<rect width="80" height="80" rx="8" fill="#2B2B2B"/>
<path d="M24.6953 69V61H27.8516C28.4557 61 28.9714 61.1081 29.3984 61.3242C29.8281 61.5378 30.1549 61.8411 30.3789 62.2344C30.6055 62.625 30.7188 63.0846 30.7188 63.6133C30.7188 64.1445 30.6042 64.6016 30.375 64.9844C30.1458 65.3646 29.8138 65.6562 29.3789 65.8594C28.9466 66.0625 28.4232 66.1641 27.8086 66.1641H25.6953V64.8047H27.5352C27.8581 64.8047 28.1263 64.7604 28.3398 64.6719C28.5534 64.5833 28.7122 64.4505 28.8164 64.2734C28.9232 64.0964 28.9766 63.8763 28.9766 63.6133C28.9766 63.3477 28.9232 63.1237 28.8164 62.9414C28.7122 62.7591 28.5521 62.6211 28.3359 62.5273C28.1224 62.431 27.8529 62.3828 27.5273 62.3828H26.3867V69H24.6953ZM29.0156 65.3594L31.0039 69H29.1367L27.1914 65.3594H29.0156ZM34.5205 69.1172C33.9033 69.1172 33.3721 68.9922 32.9268 68.7422C32.484 68.4896 32.1429 68.1328 31.9033 67.6719C31.6637 67.2083 31.5439 66.6602 31.5439 66.0273C31.5439 65.4102 31.6637 64.8685 31.9033 64.4023C32.1429 63.9362 32.4801 63.5729 32.915 63.3125C33.3525 63.0521 33.8656 62.9219 34.4541 62.9219C34.8499 62.9219 35.2184 62.9857 35.5596 63.1133C35.9033 63.2383 36.2028 63.4271 36.458 63.6797C36.7158 63.9323 36.9163 64.25 37.0596 64.6328C37.2028 65.013 37.2744 65.4583 37.2744 65.9687V66.4258H32.208V65.3945H35.708C35.708 65.1549 35.6559 64.9427 35.5518 64.7578C35.4476 64.5729 35.3031 64.4284 35.1182 64.3242C34.9359 64.2174 34.7236 64.1641 34.4814 64.1641C34.2288 64.1641 34.0049 64.2227 33.8096 64.3398C33.6169 64.4544 33.4658 64.6094 33.3564 64.8047C33.2471 64.9974 33.1911 65.2122 33.1885 65.4492V66.4297C33.1885 66.7266 33.2432 66.9831 33.3525 67.1992C33.4645 67.4154 33.6221 67.582 33.8252 67.6992C34.0283 67.8164 34.2692 67.875 34.5479 67.875C34.7327 67.875 34.902 67.849 35.0557 67.7969C35.2093 67.7448 35.3408 67.6667 35.4502 67.5625C35.5596 67.4583 35.6429 67.3307 35.7002 67.1797L37.2393 67.2812C37.1611 67.651 37.001 67.974 36.7588 68.25C36.5192 68.5234 36.2093 68.737 35.8291 68.8906C35.4515 69.0417 35.0153 69.1172 34.5205 69.1172ZM40.0713 69.1133C39.6885 69.1133 39.3473 69.0469 39.0479 68.9141C38.7484 68.7786 38.5114 68.5794 38.3369 68.3164C38.165 68.0508 38.0791 67.7201 38.0791 67.3242C38.0791 66.9909 38.1403 66.7109 38.2627 66.4844C38.3851 66.2578 38.5518 66.0755 38.7627 65.9375C38.9736 65.7995 39.2132 65.6953 39.4814 65.625C39.7523 65.5547 40.0361 65.5052 40.333 65.4766C40.682 65.4401 40.9632 65.4062 41.1768 65.375C41.3903 65.3411 41.5452 65.2917 41.6416 65.2266C41.738 65.1615 41.7861 65.0651 41.7861 64.9375V64.9141C41.7861 64.6667 41.708 64.4753 41.5518 64.3398C41.3981 64.2044 41.1794 64.1367 40.8955 64.1367C40.596 64.1367 40.3577 64.2031 40.1807 64.3359C40.0036 64.4661 39.8864 64.6302 39.8291 64.8281L38.29 64.7031C38.3682 64.3385 38.5218 64.0234 38.751 63.7578C38.9801 63.4896 39.2757 63.2839 39.6377 63.1406C40.0023 62.9948 40.4242 62.9219 40.9033 62.9219C41.2367 62.9219 41.5557 62.9609 41.8604 63.0391C42.1676 63.1172 42.4398 63.2383 42.6768 63.4023C42.9163 63.5664 43.1051 63.7773 43.2432 64.0352C43.3812 64.2904 43.4502 64.5964 43.4502 64.9531V69H41.8721V68.168H41.8252C41.7288 68.3555 41.5999 68.5208 41.4385 68.6641C41.277 68.8047 41.083 68.9154 40.8564 68.9961C40.6299 69.0742 40.3682 69.1133 40.0713 69.1133ZM40.5479 67.9648C40.7926 67.9648 41.0088 67.9167 41.1963 67.8203C41.3838 67.7214 41.5309 67.5885 41.6377 67.4219C41.7445 67.2552 41.7979 67.0664 41.7979 66.8555V66.2188C41.7458 66.2526 41.6742 66.2839 41.583 66.3125C41.4945 66.3385 41.3942 66.3633 41.2822 66.3867C41.1702 66.4076 41.0583 66.4271 40.9463 66.4453C40.8343 66.4609 40.7327 66.4753 40.6416 66.4883C40.4463 66.5169 40.2757 66.5625 40.1299 66.625C39.984 66.6875 39.8708 66.7721 39.79 66.8789C39.7093 66.9831 39.6689 67.1133 39.6689 67.2695C39.6689 67.4961 39.751 67.6693 39.915 67.7891C40.0817 67.9062 40.2926 67.9648 40.5479 67.9648ZM47.4521 69.1172C46.8376 69.1172 46.3089 68.987 45.8662 68.7266C45.4261 68.4635 45.0876 68.099 44.8506 67.6328C44.6162 67.1667 44.499 66.6302 44.499 66.0234C44.499 65.4089 44.6175 64.8698 44.8545 64.4062C45.0941 63.9401 45.4339 63.5768 45.874 63.3164C46.3141 63.0534 46.8376 62.9219 47.4443 62.9219C47.9678 62.9219 48.4261 63.0169 48.8193 63.207C49.2126 63.3971 49.5238 63.6641 49.7529 64.0078C49.9821 64.3516 50.1084 64.7552 50.1318 65.2188H48.5615C48.5173 64.9193 48.4001 64.6784 48.21 64.4961C48.0225 64.3112 47.7764 64.2187 47.4717 64.2187C47.2139 64.2187 46.9886 64.2891 46.7959 64.4297C46.6058 64.5677 46.4574 64.7695 46.3506 65.0352C46.2438 65.3008 46.1904 65.6224 46.1904 66C46.1904 66.3828 46.2425 66.7083 46.3467 66.9766C46.4535 67.2448 46.6032 67.4492 46.7959 67.5898C46.9886 67.7305 47.2139 67.8008 47.4717 67.8008C47.6618 67.8008 47.8324 67.7617 47.9834 67.6836C48.137 67.6055 48.2633 67.4922 48.3623 67.3437C48.4639 67.1927 48.5303 67.0117 48.5615 66.8008H50.1318C50.1058 67.2591 49.9808 67.6628 49.7568 68.0117C49.5355 68.3581 49.2295 68.6289 48.8389 68.8242C48.4482 69.0195 47.986 69.1172 47.4521 69.1172ZM54.3887 63V64.25H50.7754V63H54.3887ZM51.5957 61.5625H53.2598V67.1562C53.2598 67.3099 53.2832 67.4297 53.3301 67.5156C53.377 67.599 53.4421 67.6576 53.5254 67.6914C53.6113 67.7253 53.7103 67.7422 53.8223 67.7422C53.9004 67.7422 53.9785 67.7357 54.0566 67.7227C54.1348 67.707 54.1947 67.6953 54.2363 67.6875L54.498 68.9258C54.4147 68.9518 54.2975 68.9818 54.1465 69.0156C53.9954 69.0521 53.8118 69.0742 53.5957 69.082C53.1947 69.0977 52.8431 69.0443 52.541 68.9219C52.2415 68.7995 52.0085 68.6094 51.8418 68.3516C51.6751 68.0937 51.5931 67.7682 51.5957 67.375V61.5625Z" fill="#FFA800"/>
<path d="M40 34.7407C42.0659 34.7407 43.7406 33.0659 43.7406 31C43.7406 28.9341 42.0659 27.2594 40 27.2594C37.9341 27.2594 36.2594 28.9341 36.2594 31C36.2594 33.0659 37.9341 34.7407 40 34.7407Z" fill="#FFA800"/>
<path d="M54.2078 24.8313C53.4859 24.5688 52.7313 24.3063 51.9438 24.0766C52.1406 23.2891 52.3047 22.5016 52.4359 21.7469C53.125 17.4156 52.3703 14.3641 50.2703 13.1828C49.6469 12.8219 48.9578 12.6578 48.1703 12.6578C45.8734 12.6578 42.9531 14.3641 40 17.2188C37.0469 14.3641 34.1266 12.6578 31.8297 12.6578C31.0422 12.6578 30.3531 12.8219 29.7297 13.1828C27.6297 14.3969 26.875 17.4485 27.5641 21.7469C27.6953 22.5016 27.8594 23.2891 28.0563 24.0766C27.2688 24.3063 26.5141 24.536 25.7922 24.8313C21.6906 26.4063 19.4594 28.5719 19.4594 31C19.4594 33.4281 21.7234 35.5938 25.7922 37.1688C26.5141 37.4313 27.2688 37.6938 28.0563 37.9235C27.8594 38.711 27.6953 39.4985 27.5641 40.2531C26.875 44.5844 27.6297 47.636 29.7297 48.8172C30.3531 49.1782 31.0422 49.3422 31.8297 49.3422C34.1594 49.3422 37.0797 47.636 40 44.7813C42.9531 47.636 45.8734 49.3422 48.1703 49.3422C48.9578 49.3422 49.6469 49.1782 50.2703 48.8172C52.3703 47.6032 53.125 44.5516 52.4359 40.2531C52.3047 39.4985 52.1406 38.711 51.9438 37.9235C52.7313 37.6938 53.4859 37.4641 54.2078 37.1688C58.3094 35.5938 60.5406 33.4281 60.5406 31C60.5406 28.5719 58.3094 26.4063 54.2078 24.8313ZM49.3516 14.8235C50.6969 15.611 51.1563 18.0391 50.5984 21.4844C50.5 22.1735 50.3359 22.8953 50.1391 23.65C48.4328 23.2563 46.6281 22.9938 44.725 22.8297C43.6094 21.2547 42.4609 19.8438 41.3125 18.5641C43.7406 16.1688 46.2016 14.5281 48.2031 14.5281C48.6297 14.5281 49.0234 14.6266 49.3516 14.8235ZM45.6766 34.2813C45.0859 35.3313 44.3969 36.3813 43.675 37.4313C42.4609 37.5297 41.2469 37.5625 40 37.5625C38.7203 37.5625 37.5063 37.5297 36.325 37.4313C35.6031 36.3813 34.9469 35.3313 34.3563 34.2813C33.7328 33.1985 33.1422 32.0828 32.6172 31C33.1422 29.9172 33.7328 28.8016 34.3563 27.7188C34.9469 26.6688 35.6359 25.6188 36.3578 24.5688C37.5719 24.4703 38.7859 24.4375 40.0328 24.4375C41.3125 24.4375 42.5266 24.4703 43.7078 24.5688C44.4297 25.6188 45.0859 26.6688 45.6766 27.7188C46.3 28.8016 46.8906 29.9172 47.4156 31C46.8578 32.0828 46.3 33.1656 45.6766 34.2813ZM48.4 33.1985C48.8922 34.3469 49.2859 35.4625 49.6469 36.5781C48.5313 36.8406 47.35 37.0375 46.1031 37.2016C46.4969 36.5782 46.9234 35.9219 47.2844 35.2328C47.6781 34.5438 48.0391 33.8547 48.4 33.1985ZM40 42.0907C39.2125 41.2375 38.4578 40.3188 37.7359 39.3672C38.4906 39.4 39.2453 39.4328 40 39.4328C40.7547 39.4328 41.5094 39.4 42.2641 39.3672C41.5422 40.3188 40.7875 41.2375 40 42.0907ZM33.8969 37.1688C32.65 37.0047 31.4688 36.8078 30.3531 36.5453C30.7141 35.4625 31.1078 34.3141 31.6 33.1656C31.9609 33.8219 32.3219 34.511 32.7156 35.1672C33.1094 35.8891 33.5031 36.5125 33.8969 37.1688ZM31.6 28.8016C31.1078 27.6531 30.7141 26.5375 30.3531 25.4219C31.4688 25.1594 32.65 24.9625 33.8969 24.7985C33.5031 25.4219 33.0766 26.0781 32.7156 26.7672C32.3219 27.4563 31.9609 28.1453 31.6 28.8016ZM40 19.9094C40.7875 20.7625 41.5422 21.6813 42.2641 22.6328C41.5094 22.6 40.7547 22.5672 40 22.5672C39.2453 22.5672 38.4906 22.6 37.7359 22.6328C38.4578 21.6813 39.2125 20.7625 40 19.9094ZM47.2844 26.8L46.1031 24.8313C47.35 24.9953 48.5313 25.1922 49.6469 25.4547C49.2859 26.5375 48.8922 27.686 48.4 28.8344C48.0391 28.1453 47.6781 27.4563 47.2844 26.8ZM29.4016 21.4844C28.8438 18.0391 29.3031 15.611 30.6484 14.8235C30.9766 14.6266 31.3703 14.5281 31.7969 14.5281C33.7656 14.5281 36.2266 16.136 38.6875 18.5641C37.5391 19.811 36.3906 21.2547 35.275 22.8297C33.3719 22.9938 31.5672 23.2891 29.8609 23.65C29.6641 22.8953 29.5328 22.1735 29.4016 21.4844ZM21.2969 31C21.2969 29.4578 23.1672 27.8172 26.4484 26.6031C27.1047 26.3406 27.8266 26.111 28.5484 25.9141C29.0734 27.5547 29.7297 29.2938 30.5172 31.0328C29.7297 32.7719 29.0406 34.4781 28.5484 36.1188C24.0203 34.8063 21.2969 32.8375 21.2969 31ZM30.6484 47.1766C29.3031 46.3891 28.8438 43.961 29.4016 40.5156C29.5 39.8266 29.6641 39.1047 29.8609 38.35C31.5672 38.7438 33.3719 39.0063 35.275 39.1703C36.3906 40.7453 37.5391 42.1563 38.6875 43.436C36.2594 45.8313 33.7984 47.4719 31.7969 47.4719C31.3703 47.4719 30.9766 47.3735 30.6484 47.1766ZM50.5984 40.5156C51.1563 43.961 50.6969 46.3891 49.3516 47.1766C49.0234 47.3735 48.6297 47.4719 48.2031 47.4719C46.2344 47.4719 43.7734 45.8641 41.3125 43.436C42.4609 42.1891 43.6094 40.7453 44.725 39.1703C46.6281 39.0063 48.4328 38.711 50.1391 38.35C50.3359 39.1047 50.4672 39.8266 50.5984 40.5156ZM53.5516 35.3969C52.8953 35.6594 52.1734 35.8891 51.4516 36.086C50.9266 34.4453 50.2703 32.7063 49.4828 30.9672C50.2703 29.2282 50.9594 27.5219 51.4516 25.8813C55.9797 27.1938 58.7031 29.1625 58.7031 31C58.7031 32.5422 56.8 34.1828 53.5516 35.3969Z" fill="#FFA800"/>
</svg>
