<svg width="60" height="60" viewBox="0 0 60 60" fill="none" xmlns="http://www.w3.org/2000/svg">
<rect x="1" y="1" width="58" height="58" rx="9" stroke="#FFA700" stroke-width="2"/>
<path fill-rule="evenodd" clip-rule="evenodd" d="M14.5408 17.0692C13.3339 17.3062 12.3079 18.3532 12.074 19.5867C11.9753 20.107 11.9753 39.1886 12.074 39.7089C12.3135 40.9715 13.3332 41.9912 14.5958 42.2307C15.1192 42.33 44.8808 42.33 45.4042 42.2307C46.6668 41.9912 47.6865 40.9715 47.926 39.7089C48.0247 39.1886 48.0247 20.107 47.926 19.5867C47.6865 18.324 46.6668 17.3044 45.4042 17.0649C44.9336 16.9756 14.9959 16.9798 14.5408 17.0692ZM38.1916 25.2623C33.9756 29.456 31.8825 31.49 31.6182 31.6503C30.6329 32.2475 29.3671 32.2475 28.3818 31.6503C28.1175 31.49 26.0244 29.456 21.8084 25.2623L15.6229 19.1096H30H44.3771L38.1916 25.2623ZM20.4033 26.8312L23.2151 29.6479L19.7002 33.1676C17.767 35.1034 15.7186 37.1318 15.1483 37.6751L14.1114 38.6628V29.6475V20.6322L15.8514 22.3233C16.8084 23.2534 18.8567 25.2819 20.4033 26.8312ZM45.8716 34.1648L45.8535 38.6818L41.3189 34.1633L36.7843 29.6448L41.3189 25.1343L45.8535 20.6238L45.8716 25.1358C45.8815 27.6174 45.8815 31.6804 45.8716 34.1648ZM25.4667 31.9016C26.739 33.1837 27.4762 33.6941 28.5236 34.0182C28.965 34.1548 29.2056 34.1814 30 34.1814C31.0808 34.1814 31.6446 34.0498 32.4606 33.6072C33.065 33.2794 33.3842 33.0183 34.4087 32.0138L35.267 31.1722L36.9396 32.7958C37.8595 33.6887 39.9092 35.7185 41.4943 37.3063L44.3765 40.1934L29.9996 40.1903L15.6229 40.1873L20.1441 35.6909C22.6307 33.2179 24.6877 31.1945 24.7151 31.1945C24.7425 31.1945 25.0808 31.5127 25.4667 31.9016Z" fill="#FFA700"/>
</svg>
