<svg width="60" height="60" viewBox="0 0 60 60" fill="none" xmlns="http://www.w3.org/2000/svg">
<rect x="1" y="1" width="58" height="58" rx="9" stroke="#FFA700" stroke-width="2"/>
<path d="M17.8137 9.60531C17.6684 9.92819 17.4666 10.4206 17.3778 10.7031C16.9903 11.8412 16.95 12.1883 16.9096 14.7875L16.8692 17.2737L16.393 18.1777C15.5212 19.8486 15.158 21.3016 15.1661 23.1501C15.1741 26.9197 17.2163 30.3583 20.881 32.7799C21.672 33.2965 23.0766 34.0068 23.908 34.2974C24.1986 34.3943 24.4488 34.4911 24.4649 34.4992C24.4811 34.5154 24.3277 34.701 24.1259 34.9109C23.6174 35.4436 23.4882 35.6293 23.1492 36.2347C22.6649 37.1226 22.2129 38.6966 22.2129 39.5038V39.7783H21.107C19.315 39.7702 19.194 39.6733 18.2173 37.4374C17.8459 36.5899 17.4423 35.7423 17.3213 35.5728C16.958 35.04 16.1589 34.362 15.5697 34.0795C14.8028 33.7162 14.1571 33.6274 12.47 33.6597C11.1139 33.684 11.009 33.7001 10.5812 33.8938C9.96771 34.1844 9.50761 34.6203 9.24124 35.1611C8.92643 35.8069 8.91836 36.7029 9.22509 37.3648C9.69327 38.3576 10.4278 38.8177 11.6467 38.8904C12.4539 38.9388 12.7606 39.0518 12.9301 39.3666C12.9705 39.4554 13.2288 40.1092 13.4871 40.8196C13.7535 41.538 14.1006 42.3694 14.262 42.6761C14.8835 43.8465 15.8602 44.7748 17.0872 45.3479C18.1123 45.8242 18.5805 45.913 20.4613 45.9695L22.1322 46.0179V48.1893V50.3525H30.083H38.0339V45.1219C38.0339 42.2483 37.9935 39.5442 37.9532 39.1164C37.8079 37.5989 37.146 36.1055 36.1693 35.0562C35.8948 34.7656 35.685 34.5154 35.7011 34.4992C35.7173 34.4911 35.9675 34.3943 36.2581 34.2974C38.946 33.353 41.6098 31.3269 43.1192 29.0668C44.4269 27.1134 45 25.3133 45 23.1097C45 21.2209 44.6852 19.9697 43.765 18.1454L43.2887 17.2172L43.2565 14.7552C43.208 11.8251 43.1112 11.252 42.3443 9.59724L42.0699 8.99992L40.7219 9.04835C39.1882 9.09678 38.6716 9.20172 37.6545 9.66989C36.807 10.0654 36.3388 10.3802 35.7173 10.9856C35.2975 11.3973 35.1926 11.4619 34.9908 11.4215C34.8697 11.4054 34.3369 11.2924 33.8203 11.1793C32.3997 10.8726 31.1889 10.7757 29.4776 10.8242C27.9843 10.8645 27.1771 10.9695 25.7887 11.3004L25.0542 11.4699L24.5376 11.0018C23.0039 9.59724 21.4541 9.02413 19.1697 9.02413H18.0881L17.8137 9.60531ZM21.2442 11.034C22.0676 11.3166 22.7456 11.7686 23.69 12.6565L24.5618 13.4879L25.2641 13.2781C27.1368 12.7049 28.4121 12.5435 30.5673 12.6C32.3916 12.6484 33.3522 12.7937 34.902 13.27L35.6204 13.4879L36.2016 12.931C37.816 11.3569 38.6312 10.9291 40.1891 10.8242L40.9398 10.7757L41.069 11.0906C41.4161 11.922 41.5048 12.7453 41.5048 15.3283V17.8064L41.7954 18.2342C42.7802 19.6791 43.3695 21.8424 43.2484 23.5617C42.9255 28.2677 39.051 32.0453 33.2069 33.3691L32.214 33.5952L33.7073 35.0885C35.3217 36.7109 35.6365 37.1387 35.9998 38.2042L36.2177 38.85L36.2419 43.7093L36.2661 48.5767H30.0911H23.908V47.0834C23.908 45.4529 23.8595 45.1946 23.4398 44.7587C22.9878 44.2824 22.899 44.2663 20.8003 44.2098C19.0002 44.1694 18.8226 44.1533 18.2899 43.9596C17.289 43.6044 16.393 42.886 15.8925 42.0384C15.7795 41.8366 15.4244 40.981 15.1015 40.1415C14.488 38.5271 14.2539 38.0912 13.7857 37.728C13.3176 37.3728 12.9382 37.2518 12.1149 37.1953C11.2834 37.1307 11.0009 37.0177 10.8476 36.6625C10.6377 36.2105 10.7911 35.7746 11.235 35.5405C11.5498 35.3791 13.9472 35.371 14.4799 35.5324C14.9804 35.6777 15.5454 36.0813 15.828 36.493C15.9571 36.6867 16.3203 37.4536 16.6432 38.2042C17.3293 39.8429 17.4908 40.1334 17.9509 40.5613C18.8146 41.3523 19.4684 41.5541 21.2119 41.5541C22.4954 41.5541 22.8102 41.4976 23.238 41.1828C23.6658 40.8599 23.8353 40.4967 23.9564 39.5926C24.1017 38.5594 24.3277 37.8007 24.699 37.0742C24.9493 36.606 25.2479 36.267 26.4829 35.0481L27.9682 33.5952L26.8462 33.3207C25.369 32.9736 24.4488 32.6669 23.464 32.1987C18.4191 29.8013 15.941 25.2084 17.2567 20.6639C17.5069 19.8163 17.8217 19.1141 18.2818 18.4037L18.6451 17.8387L18.6774 15.1023C18.7096 12.6242 18.7258 12.3175 18.8872 11.7525C19.1697 10.7354 19.1213 10.7757 19.985 10.8161C20.429 10.8403 20.9294 10.9291 21.2442 11.034Z" fill="#FFA700"/>
</svg>
