<svg width="60" height="60" viewBox="0 0 60 60" fill="none" xmlns="http://www.w3.org/2000/svg">
<path fill-rule="evenodd" clip-rule="evenodd" d="M21.1689 10.0771C19.828 10.3401 18.5725 11.5206 18.1435 12.922C18.0062 13.3707 18 14.1053 18 29.995C18 45.8847 18.0062 46.6193 18.1435 47.0679C18.5827 48.5029 19.831 49.6544 21.2338 49.9188C21.8086 50.0271 38.1795 50.0271 38.7543 49.9188C40.1571 49.6544 41.4053 48.5029 41.8445 47.0679C41.9819 46.6193 41.9881 45.8847 41.9881 29.995C41.9881 14.1053 41.9819 13.3707 41.8445 12.922C41.4053 11.4871 40.1571 10.3356 38.7543 10.0712C38.231 9.9726 21.6736 9.97814 21.1689 10.0771ZM38.8846 12.225C39.107 12.3358 39.3957 12.5611 39.5261 12.7258C40.0305 13.3627 39.9956 12.0796 39.9956 29.995C39.9956 47.9104 40.0305 46.6273 39.5261 47.2642C39.3957 47.4289 39.107 47.6542 38.8846 47.765L38.4803 47.9665H29.994H21.5078L21.1034 47.765C20.8811 47.6542 20.5924 47.4289 20.462 47.2642C19.9576 46.6273 19.9925 47.9104 19.9925 29.995C19.9925 12.0796 19.9576 13.3627 20.462 12.7258C20.5924 12.5611 20.8811 12.3358 21.1034 12.225L21.5078 12.0235H29.994H38.4803L38.8846 12.225ZM25.8075 13.4992C25.5671 13.6457 25.3058 14.0777 25.3058 14.3285C25.3058 14.5793 25.5671 15.0113 25.8075 15.1579C26.3028 15.4599 26.957 15.2628 27.2069 14.7361C27.3664 14.3999 27.3691 14.2822 27.2249 13.937C27.0058 13.4126 26.3046 13.196 25.8075 13.4992ZM29.1128 13.5186C28.6679 13.8505 28.5496 14.3715 28.8189 14.813C29.1093 15.2895 29.2012 15.3052 31.6896 15.3049C33.7535 15.3047 33.9599 15.2925 34.1806 15.1579C34.421 15.0113 34.6823 14.5793 34.6823 14.3285C34.6823 14.0777 34.421 13.6457 34.1806 13.4992C33.9593 13.3641 33.7549 13.3526 31.6349 13.3545C29.4268 13.3566 29.3207 13.3636 29.1128 13.5186ZM29.4579 42.7383C28.5873 43.004 28.025 43.7677 28.025 44.6848C28.025 45.4763 28.4301 46.0996 29.1736 46.4517C29.9268 46.8084 30.8665 46.6237 31.4551 46.0031C32.1332 45.2885 32.1353 44.1144 31.4601 43.3157C31.0449 42.8248 30.0835 42.5475 29.4579 42.7383Z" fill="#FFA700"/>
<rect x="1" y="1" width="58" height="58" rx="9" stroke="#FFA700" stroke-width="2"/>
</svg>
